<svg width="64" height="64" viewBox="0 0 64 64" fill="none" xmlns="http://www.w3.org/2000/svg">
<path fill-rule="evenodd" clip-rule="evenodd" d="M32.356 6.00007C32.352 6.00138 32.348 6.00271 32.344 6.00407C32.3373 6.004 32.3307 6.004 32.324 6.00407C32.2065 6.01248 32.0914 6.0416 31.984 6.09007L8.868 15.9761C8.63064 16.0135 8.41471 16.1352 8.25973 16.3189C8.10474 16.5025 8.02106 16.7358 8.024 16.9761V46.9801C8.02283 47.1226 8.05215 47.2638 8.11 47.3941C8.11131 47.3981 8.11264 47.4021 8.114 47.4061C8.12213 47.4243 8.1308 47.4423 8.14 47.4601C8.24746 47.6759 8.42929 47.8457 8.652 47.9381L31.786 57.8281C31.9834 57.9703 32.2259 58.0357 32.468 58.0121C32.6432 58.0028 32.8129 57.9476 32.96 57.8521L56.148 47.9381C56.3107 47.8719 56.4531 47.7641 56.5609 47.6254C56.6687 47.4867 56.7381 47.3221 56.762 47.1481C56.7652 47.1301 56.7678 47.1121 56.77 47.0941C56.7717 47.0781 56.7731 47.0621 56.774 47.0461C56.7744 47.0294 56.7744 47.0127 56.774 46.9961C56.774 46.9907 56.774 46.9854 56.774 46.9801V16.9761C56.7766 16.7388 56.6947 16.5084 56.543 16.3259C56.3914 16.1434 56.1797 16.0209 55.946 15.9801L32.812 6.09007C32.7917 6.08004 32.771 6.0707 32.75 6.06207C32.7473 6.06072 32.7447 6.05939 32.742 6.05807C32.7124 6.04935 32.6823 6.04201 32.652 6.03607C32.642 6.03325 32.632 6.03058 32.622 6.02807C32.5995 6.02195 32.5768 6.01661 32.554 6.01207C32.544 6.01059 32.534 6.00925 32.524 6.00807C32.502 6.00601 32.48 6.00468 32.458 6.00407C32.4241 6.001 32.39 5.99967 32.356 6.00007ZM32.398 8.09007L37.3 10.1841L16.524 19.0701C16.5037 19.0787 16.4837 19.0881 16.464 19.0981L11.56 17.0001L32.4 8.09007H32.398ZM39.844 11.2741L45.792 13.8161L24.628 22.8681C24.4325 22.9521 24.2688 23.0963 24.1609 23.2798C24.053 23.4632 24.0064 23.6763 24.028 23.8881C24.0244 23.9266 24.0231 23.9654 24.024 24.0041V34.7041L21.856 31.4501C21.7209 31.2475 21.5165 31.1012 21.2812 31.0387C21.0459 30.9761 20.7959 31.0015 20.578 31.1101L18.024 32.3861V20.6061L39.844 11.2741ZM48.336 14.9021L53.242 17.0001L32.4 25.9101L27.498 23.8161L48.278 14.9301C48.2983 14.9214 48.3183 14.9121 48.338 14.9021H48.336ZM10.024 18.5161L16.024 21.0821V34.0041C16.024 34.1746 16.0676 34.3423 16.1507 34.4912C16.2338 34.6401 16.3536 34.7653 16.4987 34.8549C16.6438 34.9445 16.8094 34.9955 16.9797 35.0031C17.1501 35.0106 17.3195 34.9745 17.472 34.8981L20.68 33.2921L24.136 38.4761C24.2457 38.6874 24.4273 38.8527 24.648 38.9421C24.6775 38.9535 24.7075 38.9635 24.738 38.9721C24.7393 38.9734 24.7407 38.9747 24.742 38.9761C24.806 38.9946 24.8716 39.0066 24.938 39.0121C24.9712 39.0151 25.0046 39.0164 25.038 39.0161C25.0714 39.0164 25.1048 39.0151 25.138 39.0121C25.1717 39.0071 25.205 39.0004 25.238 38.9921C25.2582 38.9874 25.2782 38.982 25.298 38.9761C25.3094 38.9736 25.3207 38.9709 25.332 38.9681C25.5557 38.8977 25.7475 38.751 25.874 38.5536C26.0005 38.3562 26.0536 38.1207 26.024 37.8881V25.3641L31.398 27.6601V55.4881L10.024 46.3481V18.5161ZM54.774 18.5201V46.3481L33.398 55.4921V27.6601L54.774 18.5201ZM42.22 41.5041C42.216 41.5054 42.212 41.5067 42.208 41.5081C42.0837 41.5141 41.9616 41.5433 41.848 41.5941L36.018 44.0861C35.774 44.19 35.5813 44.3867 35.4823 44.6327C35.3833 44.8788 35.386 45.1541 35.49 45.3981C35.594 45.6421 35.7906 45.8348 36.0366 45.9338C36.2827 46.0328 36.558 46.03 36.802 45.9261L42.638 43.4341C42.8595 43.3476 43.0429 43.185 43.1553 42.9755C43.2677 42.766 43.3018 42.5233 43.2515 42.2909C43.2012 42.0586 43.0697 41.8517 42.8807 41.7075C42.6916 41.5633 42.4574 41.4912 42.22 41.5041ZM48.04 43.0041C47.9177 43.0108 47.7977 43.04 47.686 43.0901L41.85 45.5821L36.018 48.0781C35.774 48.182 35.5813 48.3787 35.4823 48.6247C35.3833 48.8708 35.386 49.1461 35.49 49.3901C35.594 49.6341 35.7906 49.8268 36.0366 49.9258C36.2827 50.0248 36.558 50.022 36.802 49.9181L42.638 47.4221L48.47 44.9261C48.687 44.8356 48.8651 44.6717 48.9732 44.4629C49.0813 44.2542 49.1125 44.0141 49.0611 43.7847C49.0098 43.5553 48.8793 43.3514 48.6926 43.2086C48.5059 43.0658 48.2748 42.9934 48.04 43.0041Z" fill="#55B848"/>
</svg>
