<svg width="50" height="64" viewBox="0 0 50 64" fill="none" xmlns="http://www.w3.org/2000/svg">
<path fill-rule="evenodd" clip-rule="evenodd" d="M46.6707 57.6263H32.761C32.2736 57.6263 31.8986 57.2514 31.8986 56.764V51.9274C31.8986 51.4025 31.4487 50.9526 30.9238 50.9526H30.2865C29.799 50.9526 29.4241 50.5402 29.4241 50.0903V44.9538C29.4241 42.5917 27.512 40.7171 25.15 40.7171H24.85C22.5255 40.7171 20.6133 42.5917 20.6133 44.9538V50.0903C20.6133 50.5402 20.2009 50.9526 19.7135 50.9526H19.1136C18.5512 50.9526 18.1388 51.4025 18.1388 51.9274V56.764C18.1388 57.2514 17.7264 57.6263 17.239 57.6263H3.36671C1.49208 57.6263 -0.00762939 56.1266 -0.00762939 54.252V27.9321C-0.00762939 26.0575 1.52957 24.5203 3.4042 24.5203H19.4511C21.3257 24.5203 22.8629 26.0575 22.8629 27.9321V31.4939H46.6707C48.5079 31.4939 50.0076 33.0311 50.0076 34.8682V54.252C50.0076 56.1266 48.5079 57.6263 46.6707 57.6263ZM33.6608 55.8641H46.6707C47.5706 55.8641 48.2829 55.1518 48.2829 54.252V34.8682C48.2829 33.9684 47.5706 33.2561 46.6707 33.2561H22.0006C21.5132 33.2561 21.1007 32.8811 21.1007 32.3937V27.9321C21.1007 26.9948 20.3884 26.2824 19.4511 26.2824H3.4042C2.50438 26.2824 1.75453 27.0323 1.75453 27.9321V54.252C1.75453 55.1518 2.46689 55.8641 3.36671 55.8641H16.3767V51.9274C16.3767 50.5027 17.464 49.3404 18.8887 49.1904V44.9538C18.8887 41.6544 21.5507 38.9549 24.8875 38.9549H25.1874C28.4868 38.9549 31.1863 41.6544 31.1863 44.9538V49.1904C32.5735 49.3404 33.6608 50.5027 33.6608 51.9274V55.8641Z" fill="white"/>
<path fill-rule="evenodd" clip-rule="evenodd" d="M22.0005 33.2558H10.4903C10.0029 33.2558 9.62796 32.8809 9.62796 32.3935C9.62796 31.9061 10.0029 31.4937 10.4903 31.4937H22.0005C22.4879 31.4937 22.8629 31.9061 22.8629 32.3935C22.8629 32.8809 22.4879 33.2558 22.0005 33.2558Z" fill="white"/>
<path fill-rule="evenodd" clip-rule="evenodd" d="M46.5208 33.256H22.0006C21.5132 33.256 21.1007 32.8811 21.1007 32.3937V27.932C21.1007 27.0322 20.3884 26.2824 19.4511 26.2824H14.5395C14.0521 26.2824 13.6772 25.8699 13.6772 25.3825V0.862332C13.6772 0.374927 14.0521 0 14.5395 0H46.5208C47.0082 0 47.3831 0.374927 47.3831 0.862332V32.3937C47.3831 32.8811 47.0082 33.256 46.5208 33.256ZM22.8629 31.4938H45.6209V1.76216H15.4018V24.5202H19.4511C21.3257 24.5202 22.8629 26.0574 22.8629 27.932V31.4938Z" fill="white"/>
<path fill-rule="evenodd" clip-rule="evenodd" d="M30.5114 12.5975C30.4364 12.5975 30.3239 12.56 30.2489 12.56C27.8119 11.7352 26.1997 9.48565 26.1997 6.93614C26.1997 5.99883 26.4247 5.06151 26.8371 4.23667C26.9871 3.93673 27.287 3.74927 27.6245 3.74927H33.4358C33.7358 3.74927 34.0357 3.93673 34.1857 4.23667C34.6356 5.06151 34.8605 5.99883 34.8605 6.93614C34.8605 9.48565 33.2109 11.7352 30.8113 12.56C30.6989 12.56 30.6239 12.5975 30.5114 12.5975ZM28.1868 5.51142C28.0369 5.96134 27.9619 6.44874 27.9619 6.93614C27.9619 8.62332 28.9742 10.1605 30.5114 10.7979C32.0861 10.1605 33.0984 8.66081 33.0984 6.93614C33.0984 6.44874 33.0234 5.96134 32.8359 5.51142H28.1868Z" fill="white"/>
<path fill-rule="evenodd" clip-rule="evenodd" d="M41.3843 29.5068H27.0996C26.6122 29.5068 26.2372 29.0944 26.2372 28.607C26.2372 28.1196 26.6122 27.7446 27.0996 27.7446H41.3843C41.8717 27.7446 42.2466 28.1196 42.2466 28.607C42.2466 29.0944 41.8717 29.5068 41.3843 29.5068Z" fill="white"/>
<path fill-rule="evenodd" clip-rule="evenodd" d="M41.3843 25.2324H27.0996C26.6122 25.2324 26.2372 24.82 26.2372 24.3325C26.2372 23.8826 26.6122 23.4702 27.0996 23.4702H41.3843C41.8717 23.4702 42.2466 23.8826 42.2466 24.3325C42.2466 24.82 41.8717 25.2324 41.3843 25.2324Z" fill="white"/>
<path fill-rule="evenodd" clip-rule="evenodd" d="M41.3843 20.9584H19.676C19.1886 20.9584 18.7762 20.546 18.7762 20.0961C18.7762 19.6087 19.1886 19.1963 19.676 19.1963H41.3843C41.8717 19.1963 42.2841 19.6087 42.2841 20.0961C42.2841 20.546 41.8717 20.9584 41.3843 20.9584Z" fill="white"/>
<path fill-rule="evenodd" clip-rule="evenodd" d="M41.3843 16.6843H19.676C19.1886 16.6843 18.7762 16.3093 18.7762 15.8219C18.7762 15.3345 19.1886 14.9221 19.676 14.9221H41.3843C41.8717 14.9221 42.2841 15.3345 42.2841 15.8219C42.2841 16.3093 41.8717 16.6843 41.3843 16.6843Z" fill="white"/>
<path fill-rule="evenodd" clip-rule="evenodd" d="M30.9238 64H19.1136C17.6139 64 16.3766 62.7628 16.3766 61.2631V51.9274C16.3766 50.4277 17.6139 49.1904 19.1136 49.1904H30.9238C32.4235 49.1904 33.6608 50.4277 33.6608 51.9274V61.2631C33.6608 62.7628 32.4235 64 30.9238 64ZM19.1136 50.9526C18.5512 50.9526 18.1388 51.4025 18.1388 51.9274V61.2631C18.1388 61.788 18.5512 62.2379 19.1136 62.2379H30.9238C31.4487 62.2379 31.8986 61.788 31.8986 61.2631V51.9274C31.8986 51.4025 31.4487 50.9526 30.9238 50.9526H19.1136Z" fill="white"/>
<path fill-rule="evenodd" clip-rule="evenodd" d="M30.2865 50.9525H19.751C19.2636 50.9525 18.8512 50.5401 18.8512 50.0902V44.9537C18.8512 41.6543 21.5507 38.9548 24.85 38.9548H25.1875C28.4868 38.9548 31.1863 41.6543 31.1863 44.9537V50.0902C31.1488 50.5401 30.7739 50.9525 30.2865 50.9525ZM20.6134 49.1903H29.4241V44.9537C29.4241 42.5916 27.512 40.717 25.1875 40.717H24.85C22.5255 40.717 20.6134 42.5916 20.6134 44.9537V49.1903Z" fill="white"/>
<path fill-rule="evenodd" clip-rule="evenodd" d="M25 59.7259C24.5126 59.7259 24.1377 59.3135 24.1377 58.8261V54.3269C24.1377 53.877 24.5126 53.4646 25 53.4646C25.4874 53.4646 25.8999 53.877 25.8999 54.3269V58.8261C25.8999 59.3135 25.4874 59.7259 25 59.7259Z" fill="white"/>
<path fill-rule="evenodd" clip-rule="evenodd" d="M8.72815 51.2524C8.24074 51.2524 7.86581 50.84 7.86581 50.3526V38.7674C7.86581 38.28 8.24074 37.905 8.72815 37.905C9.21555 37.905 9.62797 38.28 9.62797 38.7674V50.3526C9.62797 50.84 9.21555 51.2524 8.72815 51.2524Z" fill="white"/>
<path fill-rule="evenodd" clip-rule="evenodd" d="M41.2718 51.2524C40.8219 51.2524 40.4095 50.84 40.4095 50.3526V38.7674C40.4095 38.28 40.8219 37.905 41.2718 37.905C41.7592 37.905 42.1716 38.28 42.1716 38.7674V50.3526C42.1716 50.84 41.7592 51.2524 41.2718 51.2524Z" fill="white"/>
</svg>
