<svg width="64" height="64" viewBox="0 0 64 64" fill="none" xmlns="http://www.w3.org/2000/svg">
<path d="M46 57C46 57.7957 45.6839 58.5587 45.1213 59.1213C44.5587 59.6839 43.7957 60 43 60H7C6.20435 60 5.44129 59.6839 4.87868 59.1213C4.31607 58.5587 4 57.7957 4 57V7C4 6.20435 4.31607 5.44129 4.87868 4.87868C5.44129 4.31607 6.20435 4 7 4H38V9C38 9.79565 38.3161 10.5587 38.8787 11.1213C39.4413 11.6839 40.2043 12 41 12H46V33H48V11C47.9999 10.7348 47.8946 10.4805 47.707 10.293L39.707 2.293C39.5195 2.10545 39.2652 2.00006 39 2H7C5.67441 2.00159 4.40356 2.52888 3.46622 3.46622C2.52888 4.40356 2.00159 5.67441 2 7V57C2.00159 58.3256 2.52888 59.5964 3.46622 60.5338C4.40356 61.4711 5.67441 61.9984 7 62H43C44.3256 61.9984 45.5964 61.4711 46.5338 60.5338C47.4711 59.5964 47.9984 58.3256 48 57V53H46V57ZM40 9V5.414L44.586 10H41C40.7348 10 40.4804 9.89464 40.2929 9.70711C40.1054 9.51957 40 9.26522 40 9Z" fill="#55B848"/>
<path d="M7.99995 8H9.99995V10H7.99995V8ZM11.9999 8H17.9999V10H11.9999V8ZM7.99995 12H17.9999V14H7.99995V12ZM60.8699 29.13C59.9315 28.1938 58.66 27.668 57.3344 27.668C56.0089 27.668 54.7374 28.1938 53.799 29.13L36.1209 46.808C35.9817 46.9474 35.8867 47.1248 35.8479 47.318L35.2 50.557L33.2929 52.464C33.0106 52.7417 32.7861 53.0726 32.6322 53.4375C32.4784 53.8024 32.3984 54.1942 32.3967 54.5902C32.395 54.9862 32.4718 55.3786 32.6226 55.7449C32.7733 56.1111 32.9951 56.4438 33.2751 56.7238C33.5551 57.0039 33.8878 57.2258 34.2539 57.3766C34.6201 57.5275 35.0125 57.6043 35.4085 57.6027C35.8046 57.6012 36.1963 57.5212 36.5613 57.3675C36.9263 57.2137 37.2572 56.9893 37.535 56.707L39.443 54.8L42.6819 54.152C42.8752 54.113 43.0527 54.0176 43.192 53.878L60.8699 36.2C61.8058 35.2616 62.3314 33.9903 62.3314 32.665C62.3314 31.3397 61.8058 30.0684 60.8699 29.13ZM37.207 50.722L37.678 48.364L41.6349 52.321L39.278 52.793L37.207 50.722ZM38.949 46.808L50.97 34.786L52.3849 36.2L40.3639 48.222L38.949 46.808ZM41.778 49.636L53.7999 37.615L55.214 39.03L43.192 51.05L41.778 49.636ZM52.3849 33.372L53.0919 32.665L57.3349 36.908L56.6269 37.616L52.3849 33.372ZM36.1199 55.293C35.9296 55.4747 35.6766 55.5761 35.4135 55.5761C35.1503 55.5761 34.8973 55.4747 34.707 55.293C34.614 55.2001 34.5402 55.0898 34.4899 54.9684C34.4396 54.847 34.4137 54.7169 34.4137 54.5855C34.4137 54.4541 34.4396 54.324 34.4899 54.2026C34.5402 54.0812 34.614 53.9709 34.707 53.878L36.1209 52.464L37.5359 53.879L36.1199 55.293ZM59.456 34.787L58.749 35.494L54.506 31.251L55.213 30.544C55.4916 30.2654 55.8223 30.0444 56.1863 29.8936C56.5503 29.7428 56.9405 29.6652 57.3344 29.6652C57.7284 29.6652 58.1186 29.7428 58.4826 29.8936C58.8466 30.0444 59.1774 30.2654 59.456 30.544C59.7346 30.8226 59.9555 31.1533 60.1063 31.5174C60.2571 31.8814 60.3347 32.2715 60.3347 32.6655C60.3347 33.0595 60.2571 33.4496 60.1063 33.8136C59.9555 34.1777 59.7346 34.5084 59.456 34.787ZM43.09 30.61C43.2773 30.4212 43.3824 30.166 43.3824 29.9C43.3824 29.634 43.2773 29.3788 43.09 29.19L33.1899 19.29C32.9985 19.1116 32.7466 19.0124 32.485 19.0124C32.2233 19.0124 31.9714 19.1116 31.7799 19.29L29.16 21.91L27.6299 22.21L24.7099 19.29C24.5193 19.1058 24.2651 19.002 24 19H20.1699L17.6399 16.46C17.4511 16.2726 17.1959 16.1675 16.9299 16.1675C16.664 16.1675 16.4088 16.2726 16.2199 16.46L6.31995 26.36C6.1326 26.5488 6.02747 26.804 6.02747 27.07C6.02747 27.336 6.1326 27.5912 6.31995 27.78L13.5199 34.98C13.3043 35.4238 13.2024 35.9143 13.2236 36.4073C13.2448 36.9003 13.3884 37.3803 13.6414 37.8039C13.8944 38.2276 14.2488 38.5816 14.6728 38.834C15.0968 39.0865 15.5769 39.2294 16.0699 39.25C16.0968 39.989 16.4044 40.6899 16.9299 41.21C17.4518 41.7345 18.1509 42.0448 18.8899 42.08C18.927 42.8186 19.237 43.5171 19.7599 44.04C20.2828 44.563 20.9814 44.873 21.7199 44.91C21.7523 45.4873 21.9508 46.043 22.2916 46.5102C22.6324 46.9773 23.101 47.336 23.6409 47.5431C24.1808 47.7502 24.769 47.7968 25.3348 47.6774C25.9006 47.558 26.4198 47.2776 26.8299 46.87L27.8899 47.93C28.1681 48.2089 28.4985 48.4302 28.8623 48.5812C29.2261 48.7321 29.6161 48.8098 30.0099 48.8098C30.4038 48.8098 30.7938 48.7321 31.1576 48.5812C31.5214 48.4302 31.8518 48.2089 32.13 47.93C32.6575 47.4072 32.9652 46.7024 32.99 45.96C33.7299 45.932 34.432 45.6262 34.9565 45.1035C35.481 44.5809 35.7893 43.8798 35.82 43.14C36.5601 43.1075 37.2611 42.7989 37.785 42.275C38.3088 41.7512 38.6174 41.0501 38.65 40.31C39.2296 40.2824 39.7888 40.0869 40.2593 39.7472C40.7298 39.4076 41.0915 38.9385 41.3003 38.397C41.509 37.8555 41.5558 37.265 41.4351 36.6974C41.3143 36.1298 41.0311 35.6096 40.6199 35.2L39.56 34.14L43.09 30.61ZM8.43995 27.07L16.9299 18.59L18.3399 20L9.85995 28.49L8.43995 27.07ZM11.2699 29.9L20.1699 21H23.59L31.4199 28.84C31.5149 28.9313 31.5904 29.0407 31.6419 29.1619C31.6935 29.283 31.7201 29.4133 31.7201 29.545C31.7201 29.6767 31.6935 29.807 31.6419 29.9281C31.5904 30.0493 31.5149 30.1587 31.4199 30.25C31.2308 30.4329 30.9781 30.5352 30.715 30.5352C30.4519 30.5352 30.1991 30.4329 30.0099 30.25L25.77 26.01C25.5777 25.8294 25.3238 25.7288 25.0599 25.7288C24.7961 25.7288 24.5422 25.8294 24.3499 26.01C23.7793 26.5562 23.0199 26.8611 22.2299 26.8611C21.44 26.8611 20.6806 26.5562 20.11 26.01L18.7 27.42C19.063 27.7767 19.4777 28.0767 19.9299 28.31L14.8099 33.44L11.2699 29.9ZM26.4699 42.27C26.1025 42.6437 25.839 43.107 25.7057 43.6139C25.5724 44.1209 25.5739 44.6538 25.7099 45.16L25.41 45.45C25.3175 45.544 25.2068 45.6181 25.0848 45.668C24.9627 45.7178 24.8318 45.7423 24.7 45.74C24.5696 45.7422 24.4402 45.7176 24.3198 45.6677C24.1994 45.6178 24.0905 45.5437 24 45.45C23.8137 45.2653 23.7081 45.0144 23.7062 44.7521C23.7044 44.4898 23.8064 44.2374 23.9899 44.05C23.9926 44.05 23.9951 44.0489 23.997 44.0471C23.9989 44.0452 24 44.0427 24 44.04L26.8299 41.22V41.21L25.41 39.8L22.5799 42.63C22.5699 42.63 22.57 42.63 22.57 42.64C22.3781 42.8146 22.1274 42.9106 21.868 42.9087C21.6086 42.9069 21.3593 42.8073 21.1699 42.63C20.984 42.4404 20.8799 42.1855 20.8799 41.92C20.8799 41.6545 20.984 41.3996 21.1699 41.21L24 38.38L22.59 36.97L19.7599 39.8C19.6667 39.8932 19.556 39.9672 19.4342 40.0177C19.3124 40.0681 19.1818 40.0941 19.0499 40.0941C18.9181 40.0941 18.7875 40.0681 18.6657 40.0177C18.5439 39.9672 18.4332 39.8932 18.3399 39.8C18.2467 39.7068 18.1728 39.5961 18.1223 39.4743C18.0718 39.3524 18.0459 39.2219 18.0459 39.09C18.0459 38.9581 18.0718 38.8276 18.1223 38.7057C18.1728 38.5839 18.2467 38.4732 18.3399 38.38L21.1699 35.56L19.7599 34.14L16.9299 36.97C16.7388 37.1529 16.4845 37.255 16.2199 37.255C15.9554 37.255 15.7011 37.1529 15.5099 36.97C15.3237 36.7826 15.2192 36.5292 15.2192 36.265C15.2192 36.0008 15.3237 35.7474 15.5099 35.56L22.18 28.88C22.2 28.88 22.2099 28.89 22.2299 28.89C23.2119 28.8933 24.1727 28.6044 24.9899 28.06L28.5999 31.67C29.1716 32.2141 29.9307 32.5176 30.7199 32.5176C31.5092 32.5176 32.2682 32.2141 32.84 31.67C33.3918 31.118 33.7067 30.3726 33.7179 29.5922C33.7291 28.8117 33.4357 28.0576 32.9 27.49L38.15 32.73L37.8499 33.02C37.3429 32.8851 36.8094 32.8851 36.3024 33.0202C35.7954 33.1553 35.3326 33.4207 34.9599 33.79C34.4344 34.3101 34.1268 35.011 34.0999 35.75C33.3547 35.7826 32.6492 36.0953 32.1246 36.6255C31.5999 37.1557 31.2947 37.8645 31.27 38.61C30.5305 38.6291 29.8262 38.9293 29.3004 39.4495C28.7746 39.9698 28.4669 40.6708 28.4399 41.41C27.7006 41.4477 27.0003 41.7535 26.4699 42.27ZM30.7199 46.52C30.5277 46.7006 30.2738 46.8012 30.0099 46.8012C29.7461 46.8012 29.4922 46.7006 29.2999 46.52L27.8899 45.1C27.7853 45.0104 27.7002 44.9 27.6402 44.776C27.5802 44.6519 27.5465 44.5168 27.5411 44.3791C27.5358 44.2413 27.559 44.104 27.6093 43.9757C27.6596 43.8474 27.7358 43.7308 27.8333 43.6334C27.9308 43.5359 28.0473 43.4596 28.1756 43.4094C28.3039 43.3591 28.4413 43.3359 28.579 43.3412C28.7167 43.3465 28.8519 43.3802 28.9759 43.4403C29.1 43.5003 29.2103 43.5853 29.2999 43.69L30.7199 45.1C30.9073 45.2888 31.0124 45.544 31.0124 45.81C31.0124 46.076 30.9073 46.3312 30.7199 46.52ZM33.5499 43.69C33.3611 43.8773 33.1059 43.9825 32.84 43.9825C32.574 43.9825 32.3188 43.8773 32.13 43.69L30.7199 42.27C30.5337 42.0826 30.4292 41.8292 30.4292 41.565C30.4292 41.3008 30.5337 41.0474 30.7199 40.86C30.9073 40.6737 31.1608 40.5692 31.4249 40.5692C31.6891 40.5692 31.9426 40.6737 32.13 40.86L33.5499 42.27C33.7359 42.4596 33.84 42.7145 33.84 42.98C33.84 43.2455 33.7359 43.5004 33.5499 43.69ZM36.3699 40.86C36.1808 41.0429 35.9281 41.1452 35.665 41.1452C35.4019 41.1452 35.1491 41.0429 34.9599 40.86L33.5499 39.44C33.4548 39.35 33.3792 39.2414 33.3276 39.121C33.276 39.0006 33.2496 38.871 33.25 38.74C33.2518 38.4754 33.3577 38.2221 33.5449 38.0349C33.732 37.8478 33.9853 37.7418 34.25 37.74C34.5152 37.741 34.7698 37.845 34.9599 38.03L36.3699 39.45C36.5562 39.6374 36.6607 39.8908 36.6607 40.155C36.6607 40.4192 36.5562 40.6726 36.3699 40.86ZM39.2 38.03C39.0126 38.2162 38.7591 38.3208 38.4949 38.3208C38.2308 38.3208 37.9773 38.2162 37.79 38.03L36.3699 36.62C36.1826 36.4312 36.0775 36.176 36.0775 35.91C36.0775 35.644 36.1826 35.3888 36.3699 35.2C36.5611 35.0166 36.815 34.9129 37.08 34.91C37.3452 34.911 37.5998 35.015 37.79 35.2L39.2 36.62C39.2949 36.7113 39.3704 36.8207 39.422 36.9419C39.4735 37.063 39.5001 37.1933 39.5001 37.325C39.5001 37.4567 39.4735 37.587 39.422 37.7081C39.3704 37.8293 39.2949 37.9387 39.2 38.03ZM31.07 22.83L32.49 21.41L40.97 29.9L39.56 31.31L31.07 22.83ZM20.9999 54H31V56H20.9999V54ZM7.99995 44H15.9999V46H7.99995V44ZM7.99995 48H17.9999V50H7.99995V48ZM7.99995 40H13.9999V42H7.99995V40Z" fill="#55B848"/>
</svg>
