<svg width="64" height="64" viewBox="0 0 64 64" fill="none" xmlns="http://www.w3.org/2000/svg">
<path d="M38 34H36V40H38V34Z" fill="#55B848"/>
<path d="M42 34H40V40H42V34Z" fill="#55B848"/>
<path d="M46 34H44V40H46V34Z" fill="#55B848"/>
<path d="M50 34H48V40H50V34Z" fill="#55B848"/>
<path d="M54 34H52V40H54V34Z" fill="#55B848"/>
<path d="M58 34H56V40H58V34Z" fill="#55B848"/>
<path d="M61 48H33C32.7348 48 32.4804 48.1054 32.2929 48.2929C32.1054 48.4804 32 48.7348 32 49V61C32 61.2652 32.1054 61.5196 32.2929 61.7071C32.4804 61.8946 32.7348 62 33 62H61C61.2652 62 61.5196 61.8946 61.7071 61.7071C61.8946 61.5196 62 61.2652 62 61V49C62 48.7348 61.8946 48.4804 61.7071 48.2929C61.5196 48.1054 61.2652 48 61 48ZM60 60H34V50H60V60Z" fill="#55B848"/>
<path d="M38 52H36V58H38V52Z" fill="#55B848"/>
<path d="M42 52H40V58H42V52Z" fill="#55B848"/>
<path d="M46 52H44V58H46V52Z" fill="#55B848"/>
<path d="M50 52H48V58H50V52Z" fill="#55B848"/>
<path d="M54 52H52V58H54V52Z" fill="#55B848"/>
<path d="M58 52H56V58H58V52Z" fill="#55B848"/>
<path d="M58 26H51.78L50.97 22.757C50.9158 22.5408 50.791 22.3488 50.6152 22.2117C50.4395 22.0745 50.2229 22 50 22H48V8H49C49.7957 8 50.5587 7.68393 51.1213 7.12132C51.6839 6.55871 52 5.79565 52 5C52 4.20435 51.6839 3.44129 51.1213 2.87868C50.5587 2.31607 49.7957 2 49 2H43C42.7757 2.00375 42.5596 2.08462 42.388 2.229L42.378 2.217L9.645 28.21C8.59902 28.5031 7.67718 29.1294 7.01937 29.9938C6.36156 30.8583 6.00366 31.9137 6 33V45H5C4.73478 45 4.48043 45.1054 4.29289 45.2929C4.10536 45.4804 4 45.7348 4 46V56.382L2.553 57.105C2.38677 57.1881 2.24697 57.3158 2.14929 57.4739C2.05161 57.632 1.99991 57.8142 2 58V61C2 61.2652 2.10536 61.5196 2.29289 61.7071C2.48043 61.8946 2.73478 62 3 62H19C19.2652 62 19.5196 61.8946 19.7071 61.7071C19.8946 61.5196 20 61.2652 20 61V58C20.001 57.8133 19.9498 57.6301 19.852 57.471C19.7543 57.312 19.614 57.1834 19.447 57.1L18 56.382V46C18 45.7348 17.8946 45.4804 17.7071 45.2929C17.5196 45.1054 17.2652 45 17 45H16V34.425L43.4 8H46V22H44C43.7771 22 43.5605 22.0745 43.3848 22.2117C43.209 22.3488 43.0842 22.5408 43.03 22.757L42.22 26H36C34.9391 26 33.9217 26.4214 33.1716 27.1716C32.4214 27.9217 32 28.9391 32 30V43C32 43.2652 32.1054 43.5196 32.2929 43.7071C32.4804 43.8946 32.7348 44 33 44H61C61.2652 44 61.5196 43.8946 61.7071 43.7071C61.8946 43.5196 62 43.2652 62 43V30C62 28.9391 61.5786 27.9217 60.8284 27.1716C60.0783 26.4214 59.0609 26 58 26ZM12.719 28.323L42 5.071V6.571L15.839 31.8C15.6413 31.0102 15.2538 30.2807 14.71 29.6747C14.1663 29.0688 13.4828 28.6048 12.719 28.323ZM11 30C11.7956 30 12.5587 30.3161 13.1213 30.8787C13.6839 31.4413 14 32.2044 14 33H8C8 32.2044 8.31607 31.4413 8.87868 30.8787C9.44129 30.3161 10.2044 30 11 30ZM6 47H16V56H6V47ZM18 60H4V58.618L5.236 58H16.764L18 58.618V60ZM8 45V35H14V45H8ZM44 4H49C49.2652 4 49.5196 4.10536 49.7071 4.29289C49.8946 4.48043 50 4.73478 50 5C50 5.26522 49.8946 5.51957 49.7071 5.70711C49.5196 5.89464 49.2652 6 49 6H44V4ZM60 30H52V28H58C58.5304 28 59.0391 28.2107 59.4142 28.5858C59.7893 28.9609 60 29.4696 60 30ZM44 27.123L44.781 24H49.219L50 27.123V30H44V27.123ZM36 28H42V30H34C34 29.4696 34.2107 28.9609 34.5858 28.5858C34.9609 28.2107 35.4696 28 36 28ZM60 42H34V32H60V42Z" fill="#55B848"/>
</svg>
