<svg width="64" height="64" viewBox="0 0 64 64" fill="none" xmlns="http://www.w3.org/2000/svg">
<path d="M6 49C6.00212 50.8559 6.7403 52.6351 8.05259 53.9474C9.36489 55.2597 11.1441 55.9979 13 56H45C46.8559 55.9979 48.6351 55.2597 49.9474 53.9474C51.2597 52.6351 51.9979 50.8559 52 49V47C51.9979 45.1441 51.2597 43.3649 49.9474 42.0526C48.6351 40.7403 46.8559 40.0021 45 40H13C11.1441 40.0021 9.36489 40.7403 8.05259 42.0526C6.7403 43.3649 6.00212 45.1441 6 47V49ZM8 47C8.00159 45.6744 8.52888 44.4036 9.46622 43.4662C10.4036 42.5289 11.6744 42.0016 13 42H45C46.3256 42.0016 47.5964 42.5289 48.5338 43.4662C49.4711 44.4036 49.9984 45.6744 50 47V49C49.9984 50.3256 49.4711 51.5964 48.5338 52.5338C47.5964 53.4711 46.3256 53.9984 45 54H13C11.6744 53.9984 10.4036 53.4711 9.46622 52.5338C8.52888 51.5964 8.00159 50.3256 8 49V47Z" fill="#55B848"/>
<path d="M24 52C24.7911 52 25.5645 51.7654 26.2223 51.3259C26.8801 50.8864 27.3928 50.2617 27.6955 49.5308C27.9983 48.7999 28.0775 47.9956 27.9231 47.2197C27.7688 46.4437 27.3878 45.731 26.8284 45.1716C26.269 44.6122 25.5563 44.2312 24.7804 44.0769C24.0044 43.9225 23.2002 44.0018 22.4693 44.3045C21.7384 44.6073 21.1136 45.12 20.6741 45.7777C20.2346 46.4355 20 47.2089 20 48C20 49.0609 20.4214 50.0783 21.1716 50.8285C21.9217 51.5786 22.9391 52 24 52ZM24 46C24.3956 46 24.7822 46.1173 25.1111 46.3371C25.44 46.5569 25.6964 46.8692 25.8478 47.2347C25.9991 47.6001 26.0387 48.0023 25.9616 48.3902C25.8844 48.7782 25.6939 49.1345 25.4142 49.4142C25.1345 49.694 24.7781 49.8844 24.3902 49.9616C24.0022 50.0388 23.6001 49.9992 23.2346 49.8478C22.8692 49.6964 22.5568 49.4401 22.3371 49.1112C22.1173 48.7823 22 48.3956 22 48C22 47.4696 22.2107 46.9609 22.5858 46.5858C22.9609 46.2107 23.4696 46 24 46ZM34 52C34.7911 52 35.5645 51.7654 36.2223 51.3259C36.8801 50.8864 37.3928 50.2617 37.6955 49.5308C37.9983 48.7999 38.0775 47.9956 37.9231 47.2197C37.7688 46.4437 37.3878 45.731 36.8284 45.1716C36.269 44.6122 35.5563 44.2312 34.7804 44.0769C34.0044 43.9225 33.2002 44.0018 32.4693 44.3045C31.7384 44.6073 31.1136 45.12 30.6741 45.7777C30.2346 46.4355 30 47.2089 30 48C30 49.0609 30.4214 50.0783 31.1716 50.8285C31.9217 51.5786 32.9391 52 34 52ZM34 46C34.3956 46 34.7822 46.1173 35.1111 46.3371C35.44 46.5569 35.6964 46.8692 35.8478 47.2347C35.9991 47.6001 36.0387 48.0023 35.9616 48.3902C35.8844 48.7782 35.6939 49.1345 35.4142 49.4142C35.1345 49.694 34.7781 49.8844 34.3902 49.9616C34.0022 50.0388 33.6001 49.9992 33.2346 49.8478C32.8692 49.6964 32.5568 49.4401 32.3371 49.1112C32.1173 48.7823 32 48.3956 32 48C32 47.4696 32.2107 46.9609 32.5858 46.5858C32.9609 46.2107 33.4696 46 34 46ZM44 52C44.7911 52 45.5645 51.7654 46.2223 51.3259C46.8801 50.8864 47.3928 50.2617 47.6955 49.5308C47.9983 48.7999 48.0775 47.9956 47.9231 47.2197C47.7688 46.4437 47.3878 45.731 46.8284 45.1716C46.269 44.6122 45.5563 44.2312 44.7804 44.0769C44.0044 43.9225 43.2002 44.0018 42.4693 44.3045C41.7384 44.6073 41.1136 45.12 40.6741 45.7777C40.2346 46.4355 40 47.2089 40 48C40 49.0609 40.4214 50.0783 41.1716 50.8285C41.9217 51.5786 42.9391 52 44 52ZM44 46C44.3956 46 44.7822 46.1173 45.1111 46.3371C45.44 46.5569 45.6964 46.8692 45.8478 47.2347C45.9991 47.6001 46.0387 48.0023 45.9616 48.3902C45.8844 48.7782 45.6939 49.1345 45.4142 49.4142C45.1345 49.694 44.7781 49.8844 44.3902 49.9616C44.0022 50.0388 43.6001 49.9992 43.2346 49.8478C42.8692 49.6964 42.5568 49.4401 42.3371 49.1112C42.1173 48.7823 42 48.3956 42 48C42 47.4696 42.2107 46.9609 42.5858 46.5858C42.9609 46.2107 43.4696 46 44 46ZM14 52C14.7911 52 15.5645 51.7654 16.2223 51.3259C16.8801 50.8864 17.3928 50.2617 17.6955 49.5308C17.9983 48.7999 18.0775 47.9956 17.9231 47.2197C17.7688 46.4437 17.3878 45.731 16.8284 45.1716C16.269 44.6122 15.5563 44.2312 14.7804 44.0769C14.0044 43.9225 13.2002 44.0018 12.4693 44.3045C11.7384 44.6073 11.1136 45.12 10.6741 45.7777C10.2346 46.4355 10 47.2089 10 48C10 49.0609 10.4214 50.0783 11.1716 50.8285C11.9217 51.5786 12.9391 52 14 52ZM14 46C14.3956 46 14.7822 46.1173 15.1111 46.3371C15.44 46.5569 15.6964 46.8692 15.8478 47.2347C15.9991 47.6001 16.0387 48.0023 15.9616 48.3902C15.8844 48.7782 15.6939 49.1345 15.4142 49.4142C15.1345 49.694 14.7781 49.8844 14.3902 49.9616C14.0022 50.0388 13.6001 49.9992 13.2346 49.8478C12.8692 49.6964 12.5568 49.4401 12.3371 49.1112C12.1173 48.7823 12 48.3956 12 48C12 47.4696 12.2107 46.9609 12.5858 46.5858C12.9609 46.2107 13.4696 46 14 46ZM47.868 8.29303C47.7751 8.20005 47.6648 8.1263 47.5434 8.07597C47.422 8.02565 47.2919 7.99974 47.1605 7.99974C47.0291 7.99974 46.899 8.02565 46.7776 8.07597C46.6562 8.1263 46.5459 8.20005 46.453 8.29303L39.653 15.093L37.437 12.373C37.3442 12.2578 37.2271 12.1645 37.0939 12.1C36.9608 12.0355 36.8149 12.0014 36.667 12H22C21.7348 12 21.4804 12.1054 21.2929 12.2929C21.1054 12.4805 21 12.7348 21 13V28H19.781L18.97 24.758C18.916 24.5416 18.7912 24.3494 18.6155 24.2121C18.4397 24.0747 18.2231 24.0001 18 24H9C8.73478 24 8.48043 24.1054 8.29289 24.2929C8.10536 24.4805 8 24.7348 8 25V37C8 37.2652 8.10536 37.5196 8.29289 37.7071C8.48043 37.8947 8.73478 38 9 38H49C49.2652 38 49.5196 37.8947 49.7071 37.7071C49.8946 37.5196 50 37.2652 50 37V29C50 28.7348 49.8946 28.4805 49.7071 28.2929C49.5196 28.1054 49.2652 28 49 28H45V22C45 21.7697 44.9205 21.5465 44.775 21.368L44.375 20.878L51.706 13.547C51.8935 13.3595 51.9988 13.1052 51.9988 12.84C51.9988 12.5749 51.8935 12.3206 51.706 12.133L51.434 11.861L52.48 10.816L52.56 10.896C53.2127 11.544 54.0815 11.9286 55 11.976V16C54.8133 15.999 54.6301 16.0503 54.471 16.148C54.312 16.2457 54.1834 16.386 54.1 16.553L53.1 18.553C53.0306 18.6918 52.9945 18.8449 52.9945 19C52.9945 19.1552 53.0306 19.3082 53.1 19.447L54.1 21.447C54.1834 21.614 54.312 21.7543 54.471 21.8521C54.6301 21.9498 54.8133 22.001 55 22V23.427L53.746 24.61C53.6973 24.6558 53.6534 24.7064 53.615 24.761C53.3456 25.1556 53.1584 25.6005 53.0648 26.069C52.9711 26.5376 52.9729 27.0202 53.07 27.488C53.1419 27.8998 53.2959 28.2928 53.5228 28.6438C53.7497 28.9948 54.045 29.2965 54.391 29.531L54.526 29.617C54.9101 29.8647 55.357 29.9976 55.814 30C55.9979 30.0003 56.1813 29.9785 56.36 29.935C56.7095 29.844 57.037 29.6832 57.3226 29.4621C57.6083 29.2411 57.8462 28.9645 58.022 28.649L58.862 27.223L57.138 26.209L56.298 27.636C56.2145 27.8024 56.0691 27.9295 55.893 27.99C55.8431 28.0009 55.7914 28.0012 55.7413 27.9911C55.6912 27.9809 55.6438 27.9605 55.602 27.931L55.467 27.845C55.2305 27.6637 55.0743 27.397 55.032 27.102C54.9538 26.7212 55.0145 26.325 55.203 25.985L56.687 24.585C56.786 24.4914 56.8649 24.3785 56.9187 24.2534C56.9725 24.1282 57.0002 23.9933 57 23.857V22C57.1867 22.001 57.3699 21.9498 57.529 21.8521C57.688 21.7543 57.8166 21.614 57.9 21.447L58.9 19.447C58.9694 19.3082 59.0055 19.1552 59.0055 19C59.0055 18.8449 58.9694 18.6918 58.9 18.553L57.9 16.553C57.8166 16.386 57.688 16.2457 57.529 16.148C57.3699 16.0503 57.1867 15.999 57 16V11.538C57.5205 11.2638 57.9692 10.8711 58.31 10.3915C58.6507 9.91188 58.8739 9.35888 58.9615 8.77712C59.0491 8.19537 58.9986 7.60117 58.8143 7.0425C58.6299 6.48383 58.3167 5.97635 57.9 5.56103L54.628 2.29303C54.4405 2.10556 54.1862 2.00024 53.921 2.00024C53.6558 2.00024 53.4015 2.10556 53.214 2.29303L49.293 6.21403C49.1268 6.38238 49.0266 6.60483 49.0106 6.84087C48.9946 7.07691 49.064 7.31083 49.206 7.50003L48.139 8.56403L47.868 8.29303ZM23 14H36.191L43 22.355V28H36V21C36 20.7348 35.8946 20.4805 35.7071 20.2929C35.5196 20.1054 35.2652 20 35 20H29C28.7348 20 28.4804 20.1054 28.2929 20.2929C28.1054 20.4805 28 20.7348 28 21V28H23V14ZM34 22V28H30V22H34ZM48 30V36H10V26H17.219L18.03 29.242C18.084 29.4585 18.2088 29.6506 18.3845 29.788C18.5603 29.9253 18.7769 30 19 30H48ZM56.382 20H55.618L55.118 19L55.618 18H56.382L56.882 19L56.382 20ZM53.921 4.41403L56.481 6.97503C56.6455 7.13964 56.7761 7.33505 56.8651 7.5501C56.9541 7.76515 56.9999 7.99563 56.9999 8.22838C56.9998 8.46113 56.9539 8.6916 56.8648 8.90661C56.7757 9.12163 56.6451 9.31698 56.4805 9.48153C56.3159 9.64608 56.1205 9.77659 55.9054 9.86562C55.6904 9.95464 55.4599 10.0004 55.2271 10.0004C54.9944 10.0003 54.7639 9.95446 54.5489 9.86535C54.3339 9.77623 54.1385 9.64564 53.974 9.48103L51.414 6.92103L53.921 4.41403ZM50.121 9.41403L50.589 9.88303L50.024 10.447L49.556 9.97803L50.121 9.41403ZM49.504 12.924L43.109 19.324L40.931 16.651L47.076 10.5C47.1263 10.6219 47.2 10.7326 47.293 10.826L49.175 12.709C49.2682 12.8013 49.3786 12.8744 49.5 12.924H49.504Z" fill="#55B848"/>
<path d="M18 60H2V62H18V60Z" fill="#55B848"/>
<path d="M40 60H24V62H40V60Z" fill="#55B848"/>
<path d="M62 60H46V62H62V60Z" fill="#55B848"/>
<path d="M42 32H40V34H42V32Z" fill="#55B848"/>
<path d="M46 32H44V34H46V32Z" fill="#55B848"/>
<path d="M34 32H32V34H34V32Z" fill="#55B848"/>
<path d="M38 32H36V34H38V32Z" fill="#55B848"/>
<path d="M26 32H24V34H26V32Z" fill="#55B848"/>
<path d="M30 32H28V34H30V32Z" fill="#55B848"/>
<path d="M18 32H16V34H18V32Z" fill="#55B848"/>
<path d="M14 32H12V34H14V32Z" fill="#55B848"/>
<path d="M22 32H20V34H22V32Z" fill="#55B848"/>
</svg>
