<svg width="64" height="64" viewBox="0 0 64 64" fill="none" xmlns="http://www.w3.org/2000/svg">
<path d="M28.48 20.8999H14.41C14.1448 20.8999 13.8904 21.0053 13.7029 21.1928C13.5153 21.3803 13.41 21.6347 13.41 21.8999C13.41 22.1651 13.5153 22.4195 13.7029 22.607C13.8904 22.7945 14.1448 22.8999 14.41 22.8999H28.48C28.7452 22.8999 28.9995 22.7945 29.1871 22.607C29.3746 22.4195 29.48 22.1651 29.48 21.8999C29.48 21.6347 29.3746 21.3803 29.1871 21.1928C28.9995 21.0053 28.7452 20.8999 28.48 20.8999Z" fill="white"/>
<path d="M28.48 28.5801H14.41C14.1448 28.5801 13.8904 28.6854 13.7029 28.873C13.5153 29.0605 13.41 29.3149 13.41 29.5801C13.41 29.8453 13.5153 30.0996 13.7029 30.2872C13.8904 30.4747 14.1448 30.5801 14.41 30.5801H28.48C28.7452 30.5801 28.9995 30.4747 29.1871 30.2872C29.3746 30.0996 29.48 29.8453 29.48 29.5801C29.48 29.3149 29.3746 29.0605 29.1871 28.873C28.9995 28.6854 28.7452 28.5801 28.48 28.5801Z" fill="white"/>
<path d="M28.48 36.25H14.41C14.1448 36.25 13.8904 36.3554 13.7029 36.5429C13.5153 36.7304 13.41 36.9848 13.41 37.25C13.41 37.5152 13.5153 37.7696 13.7029 37.9571C13.8904 38.1446 14.1448 38.25 14.41 38.25H28.48C28.7452 38.25 28.9995 38.1446 29.1871 37.9571C29.3746 37.7696 29.48 37.5152 29.48 37.25C29.48 36.9848 29.3746 36.7304 29.1871 36.5429C28.9995 36.3554 28.7452 36.25 28.48 36.25Z" fill="white"/>
<path d="M28.48 43.9297H14.41C14.1448 43.9297 13.8904 44.035 13.7029 44.2226C13.5153 44.4101 13.41 44.6645 13.41 44.9297C13.41 45.1949 13.5153 45.4493 13.7029 45.6368C13.8904 45.8243 14.1448 45.9297 14.41 45.9297H28.48C28.7452 45.9297 28.9995 45.8243 29.1871 45.6368C29.3746 45.4493 29.48 45.1949 29.48 44.9297C29.48 44.6645 29.3746 44.4101 29.1871 44.2226C28.9995 44.035 28.7452 43.9297 28.48 43.9297Z" fill="white"/>
<path d="M28.48 51.6099H14.41C14.1448 51.6099 13.8904 51.7152 13.7029 51.9028C13.5153 52.0903 13.41 52.3446 13.41 52.6099C13.41 52.8751 13.5153 53.1294 13.7029 53.317C13.8904 53.5045 14.1448 53.6099 14.41 53.6099H28.48C28.7452 53.6099 28.9995 53.5045 29.1871 53.317C29.3746 53.1294 29.48 52.8751 29.48 52.6099C29.48 52.3446 29.3746 52.0903 29.1871 51.9028C28.9995 51.7152 28.7452 51.6099 28.48 51.6099Z" fill="white"/>
<path d="M10.16 20.8999H7.65997C7.39476 20.8999 7.1404 21.0053 6.95287 21.1928C6.76533 21.3803 6.65997 21.6347 6.65997 21.8999C6.65997 22.1651 6.76533 22.4195 6.95287 22.607C7.1404 22.7945 7.39476 22.8999 7.65997 22.8999H10.16C10.4252 22.8999 10.6795 22.7945 10.8671 22.607C11.0546 22.4195 11.16 22.1651 11.16 21.8999C11.16 21.6347 11.0546 21.3803 10.8671 21.1928C10.6795 21.0053 10.4252 20.8999 10.16 20.8999Z" fill="white"/>
<path d="M10.16 28.5801H7.65997C7.39476 28.5801 7.1404 28.6854 6.95287 28.873C6.76533 29.0605 6.65997 29.3149 6.65997 29.5801C6.65997 29.8453 6.76533 30.0996 6.95287 30.2872C7.1404 30.4747 7.39476 30.5801 7.65997 30.5801H10.16C10.4252 30.5801 10.6795 30.4747 10.8671 30.2872C11.0546 30.0996 11.16 29.8453 11.16 29.5801C11.16 29.3149 11.0546 29.0605 10.8671 28.873C10.6795 28.6854 10.4252 28.5801 10.16 28.5801Z" fill="white"/>
<path d="M10.16 36.25H7.65997C7.39476 36.25 7.1404 36.3554 6.95287 36.5429C6.76533 36.7304 6.65997 36.9848 6.65997 37.25C6.65997 37.5152 6.76533 37.7696 6.95287 37.9571C7.1404 38.1446 7.39476 38.25 7.65997 38.25H10.16C10.4252 38.25 10.6795 38.1446 10.8671 37.9571C11.0546 37.7696 11.16 37.5152 11.16 37.25C11.16 36.9848 11.0546 36.7304 10.8671 36.5429C10.6795 36.3554 10.4252 36.25 10.16 36.25Z" fill="white"/>
<path d="M10.16 43.9297H7.65997C7.39476 43.9297 7.1404 44.035 6.95287 44.2226C6.76533 44.4101 6.65997 44.6645 6.65997 44.9297C6.65997 45.1949 6.76533 45.4493 6.95287 45.6368C7.1404 45.8243 7.39476 45.9297 7.65997 45.9297H10.16C10.4252 45.9297 10.6795 45.8243 10.8671 45.6368C11.0546 45.4493 11.16 45.1949 11.16 44.9297C11.16 44.6645 11.0546 44.4101 10.8671 44.2226C10.6795 44.035 10.4252 43.9297 10.16 43.9297Z" fill="white"/>
<path d="M10.16 51.6099H7.65997C7.39476 51.6099 7.1404 51.7152 6.95287 51.9028C6.76533 52.0903 6.65997 52.3446 6.65997 52.6099C6.65997 52.8751 6.76533 53.1294 6.95287 53.317C7.1404 53.5045 7.39476 53.6099 7.65997 53.6099H10.16C10.4252 53.6099 10.6795 53.5045 10.8671 53.317C11.0546 53.1294 11.16 52.8751 11.16 52.6099C11.16 52.3446 11.0546 52.0903 10.8671 51.9028C10.6795 51.7152 10.4252 51.6099 10.16 51.6099Z" fill="white"/>
<path d="M60.42 29.6998C60.1396 29.3227 59.7745 29.0167 59.3542 28.8065C58.9338 28.5964 58.47 28.4879 58 28.4898H51.87L52.64 22.8098C52.6448 22.7533 52.6448 22.6964 52.64 22.6398C52.6218 22.0898 52.3905 21.5684 51.9949 21.1858C51.5992 20.8033 51.0703 20.5895 50.52 20.5898H48.65C48.2192 20.5862 47.7975 20.7133 47.4404 20.9543C47.0833 21.1953 46.8077 21.539 46.65 21.9398L43.26 28.8698H42.4C42.3431 28.304 42.0786 27.7792 41.6576 27.3969C41.2365 27.0147 40.6887 26.8019 40.12 26.7998H39.18V16.3798C39.1774 15.1368 38.6824 13.9454 37.8034 13.0664C36.9244 12.1875 35.7331 11.6925 34.49 11.6898H29.49V9.99984C29.49 9.73462 29.3846 9.48027 29.1971 9.29273C29.0096 9.1052 28.7552 8.99984 28.49 8.99984H26.57C26.3478 7.70205 25.6739 6.52463 24.6674 5.67577C23.6609 4.82692 22.3867 4.36133 21.07 4.36133C19.7533 4.36133 18.4791 4.82692 17.4726 5.67577C16.4661 6.52463 15.7922 7.70205 15.57 8.99984H13.69C13.4248 8.99984 13.1704 9.1052 12.9829 9.29273C12.7954 9.48027 12.69 9.73462 12.69 9.99984V11.6998H7.69C6.44867 11.7025 5.25879 12.1961 4.3801 13.0729C3.50142 13.9497 3.00528 15.1385 3 16.3798V54.8898C3 56.1337 3.49412 57.3266 4.37367 58.2062C5.25321 59.0857 6.44613 59.5798 7.69 59.5798H34.49C35.7339 59.5798 36.9268 59.0857 37.8063 58.2062C38.6859 57.3266 39.18 56.1337 39.18 54.8898V43.9998H40.12C40.5303 43.9973 40.9324 43.8846 41.2842 43.6735C41.6361 43.4624 41.9247 43.1607 42.12 42.7998L43.2 43.6798C43.3786 43.8231 43.601 43.9008 43.83 43.8998H53.66C54.6383 43.9025 55.5919 43.5925 56.3816 43.015C57.1713 42.4376 57.7559 41.6229 58.05 40.6898L60.85 32.3998C60.9974 31.9479 61.0352 31.4674 60.9605 30.998C60.8857 30.5286 60.7005 30.0836 60.42 29.6998ZM14.69 10.9998H16.51C16.7752 10.9998 17.0296 10.8945 17.2171 10.7069C17.4046 10.5194 17.51 10.2651 17.51 9.99984C17.5584 9.08439 17.9562 8.2224 18.6213 7.59153C19.2865 6.96066 20.1683 6.60898 21.085 6.60898C22.0017 6.60898 22.8835 6.96066 23.5487 7.59153C24.2138 8.2224 24.6116 9.08439 24.66 9.99984C24.66 10.2651 24.7654 10.5194 24.9529 10.7069C25.1404 10.8945 25.3948 10.9998 25.66 10.9998H27.48V14.3998H14.69V10.9998ZM37.18 54.8998C37.18 55.6133 36.8966 56.2975 36.3921 56.802C35.8876 57.3064 35.2034 57.5898 34.49 57.5898H7.69C7.3359 57.5898 6.98529 57.5199 6.65827 57.3841C6.33125 57.2483 6.03426 57.0493 5.78434 56.7984C5.53442 56.5476 5.33648 56.2499 5.20189 55.9223C5.06729 55.5948 4.99868 55.2439 5 54.8898V16.3798C5.00263 15.6672 5.28689 14.9845 5.79079 14.4806C6.2947 13.9767 6.97738 13.6925 7.69 13.6898H12.69V15.3898C12.69 15.5212 12.7159 15.6512 12.7661 15.7725C12.8164 15.8938 12.89 16.0041 12.9829 16.0969C13.0758 16.1898 13.186 16.2635 13.3073 16.3137C13.4286 16.364 13.5587 16.3898 13.69 16.3898H28.48C28.7452 16.3898 28.9996 16.2845 29.1871 16.0969C29.3746 15.9094 29.48 15.6551 29.48 15.3898V13.6898H34.48C35.1926 13.6925 35.8753 13.9767 36.3792 14.4806C36.8831 14.9845 37.1674 15.6672 37.17 16.3798V26.7998H36.17C35.56 26.7998 34.975 27.0422 34.5437 27.4735C34.1123 27.9048 33.87 28.4898 33.87 29.0998V41.6598C33.8659 41.97 33.9243 42.2777 34.0417 42.5648C34.1591 42.8519 34.3331 43.1124 34.5533 43.3307C34.7736 43.5491 35.0355 43.7209 35.3236 43.8359C35.6117 43.9508 35.9199 44.0066 36.23 43.9998H37.23L37.18 54.8998ZM40.43 41.6698C40.43 41.7105 40.422 41.7509 40.4064 41.7885C40.3908 41.8261 40.368 41.8603 40.3392 41.889C40.3104 41.9178 40.2762 41.9407 40.2386 41.9562C40.201 41.9718 40.1607 41.9798 40.12 41.9798H36.23C36.1897 41.9799 36.1499 41.9718 36.1128 41.9561C36.0758 41.9404 36.0422 41.9174 36.0143 41.8885C35.9863 41.8595 35.9644 41.8253 35.9499 41.7877C35.9354 41.7502 35.9287 41.7101 35.93 41.6698V29.0998C35.93 29.0604 35.9378 29.0214 35.9528 28.985C35.9679 28.9486 35.99 28.9156 36.0179 28.8877C36.0457 28.8599 36.0788 28.8378 36.1152 28.8227C36.1516 28.8076 36.1906 28.7998 36.23 28.7998H40.12C40.2005 28.7998 40.2779 28.8311 40.3357 28.8871C40.3936 28.9431 40.4274 29.0194 40.43 29.0998V41.6598V41.6698ZM59 31.7498L56.16 39.9998C55.9953 40.5311 55.6645 40.9955 55.2164 41.3249C54.7682 41.6543 54.2262 41.8313 53.67 41.8298H44.2L42.43 40.3798V30.8698H43.9C44.087 30.8627 44.2687 30.8062 44.4268 30.7061C44.5849 30.606 44.7136 30.4658 44.8 30.2998L48.49 22.7598C48.4917 22.7265 48.4917 22.6932 48.49 22.6598C48.4986 22.6353 48.515 22.6142 48.5366 22.5998C48.5583 22.5854 48.584 22.5784 48.61 22.5798H50.49C50.5147 22.5789 50.5389 22.5863 50.5588 22.6008C50.5788 22.6153 50.5933 22.6361 50.6 22.6598L49.69 29.3398C49.6715 29.481 49.6833 29.6245 49.7247 29.7608C49.7661 29.897 49.8361 30.0228 49.93 30.1298C50.0228 30.2383 50.1377 30.3257 50.2671 30.3861C50.3965 30.4464 50.5373 30.4784 50.68 30.4798H58C58.1552 30.4798 58.3084 30.516 58.4472 30.5854C58.5861 30.6548 58.7069 30.7556 58.8 30.8798C58.8984 30.9995 58.9678 31.1403 59.0025 31.2913C59.0372 31.4423 59.0363 31.5992 59 31.7498Z" fill="white"/>
</svg>
