<svg width="64" height="64" viewBox="0 0 64 64" fill="none" xmlns="http://www.w3.org/2000/svg">
<path d="M46.37 34.72C48.0102 34.72 49.6343 35.0431 51.1497 35.6707C52.6651 36.2984 54.0419 37.2184 55.2017 38.3782C56.3616 39.538 57.2816 40.9149 57.9092 42.4303C58.5369 43.9456 58.86 45.5698 58.86 47.21H33.86C33.86 45.5681 34.1837 43.9423 34.8126 42.4256C35.4416 40.909 36.3634 39.5312 37.5253 38.3711C38.6872 37.2111 40.0665 36.2915 41.5841 35.665C43.1018 35.0385 44.7281 34.7174 46.37 34.72Z" stroke="#55B848" stroke-width="3" stroke-linecap="round" stroke-linejoin="round"/>
<path d="M46.37 59.7099C44.7298 59.7099 43.1056 59.3869 41.5903 58.7592C40.0749 58.1315 38.698 57.2115 37.5382 56.0517C36.3784 54.8919 35.4584 53.515 34.8307 51.9997C34.2031 50.4843 33.88 48.8602 33.88 47.2199H58.88C58.88 48.8618 58.5563 50.4876 57.9274 52.0043C57.2984 53.5209 56.3766 54.8987 55.2147 56.0588C54.0528 57.2189 52.6735 58.1384 51.1559 58.7649C49.6382 59.3914 48.0119 59.7126 46.37 59.7099Z" stroke="#55B848" stroke-width="3" stroke-linecap="round" stroke-linejoin="round"/>
<path d="M15.0128 19.0735L31.885 31.5765L24.0855 42.1016C23.2645 43.2095 22.2334 44.1448 21.051 44.8541C19.8686 45.5635 18.558 46.033 17.1941 46.2358C15.8302 46.4387 14.4398 46.3709 13.1021 46.0364C11.7644 45.7019 10.5057 45.1072 9.39783 44.2862C7.16043 42.6282 5.67331 40.1493 5.26362 37.3948C4.85392 34.6404 5.55522 31.836 7.21323 29.5986L15.0128 19.0735Z" stroke="#55B848" stroke-width="3" stroke-linecap="round" stroke-linejoin="round"/>
<path d="M31.8321 31.5881L14.9598 19.0851L22.7594 8.55999C24.4174 6.32259 26.8963 4.83547 29.6507 4.42577C32.4052 4.01608 35.2096 4.71738 37.447 6.37539C39.6789 8.02926 41.1644 10.5002 41.5783 13.247C41.9922 15.9938 41.3008 18.7928 39.6554 21.0309L31.8321 31.5881Z" stroke="#55B848" stroke-width="3" stroke-linecap="round" stroke-linejoin="round"/>
</svg>
