<svg width="64" height="64" viewBox="0 0 64 64" fill="none" xmlns="http://www.w3.org/2000/svg">
<path d="M16 33.5999H25.6C26.4875 33.5999 27.2 32.8874 27.2 31.9999C27.2 31.1124 26.4875 30.3999 25.6 30.3999H16C15.1125 30.3999 14.4 31.1124 14.4 31.9999C14.4 32.8874 15.1125 33.5999 16 33.5999Z" fill="white"/>
<path d="M35.2 36.8H16C15.1125 36.8 14.4 37.5126 14.4 38.4001C14.4 39.2876 15.1125 40 16 40H35.2C36.0875 40 36.8 39.2876 36.8 38.4001C36.8 37.5126 36.0875 36.8 35.2 36.8Z" fill="white"/>
<path d="M35.15 43.2H16C15.1125 43.2 14.4 43.9124 14.4 44.7999C14.4 45.6874 15.1125 46.4 16 46.4H35.15C36.0375 46.4 36.75 45.6874 36.75 44.7999C36.75 43.9124 36.0375 43.2 35.15 43.2Z" fill="white"/>
<path d="M52.8 41.725V19.2L33.6125 0H9.59998C5.18748 0 1.59998 3.5875 1.59998 8V56C1.59998 60.4125 5.18748 64 9.59998 64H44.8C45.8 64 46.7875 63.8125 47.7125 63.4375C53.5875 65.3625 59.9125 62.1625 61.8375 56.2875C63.7625 50.4125 60.5625 44.0875 54.6875 42.1625C54.075 41.9625 53.4375 41.825 52.8 41.725ZM46.6375 17.6H40C37.35 17.6 35.2 15.45 35.2 12.8V6.1375L46.6375 17.6ZM9.59998 60.8C6.94998 60.8 4.79998 58.65 4.79998 56V8C4.79998 5.35 6.94998 3.2 9.59998 3.2H32V12.8C32 17.2125 35.5875 20.8 40 20.8H49.6V41.725C43.4875 42.6 39.2375 48.275 40.125 54.3875C40.475 56.825 41.625 59.075 43.375 60.8H9.59998ZM51.2 60.8C46.7875 60.8 43.2 57.2125 43.2 52.8C43.2 48.3875 46.7875 44.8 51.2 44.8C55.6125 44.8 59.2 48.3875 59.2 52.8C59.2 57.2125 55.6125 60.8 51.2 60.8Z" fill="white"/>
<path d="M52.325 48.475C52.3 48.45 52.275 48.4375 52.25 48.4125C52.225 48.3875 52.1875 48.3625 52.1625 48.3375C52.0625 48.25 51.9375 48.1875 51.8125 48.125L51.8 48.1125C51.675 48.0625 51.5375 48.025 51.3875 48.0125L51.2875 48C51.15 47.9875 51.0125 48 50.875 48.025L50.85 48.0375C50.725 48.0625 50.6 48.1 50.4875 48.1625C50.45 48.175 50.425 48.2 50.3875 48.2125C50.2625 48.275 50.15 48.3625 50.05 48.4625L46.875 51.6625C46.2625 52.3 46.275 53.3125 46.9125 53.925C47.5375 54.525 48.525 54.525 49.1375 53.925L49.6125 53.45V56C49.6125 56.8875 50.325 57.6 51.2125 57.6C52.1 57.6 52.8125 56.8875 52.8125 56V53.4625L53.2875 53.9375C53.925 54.55 54.9375 54.5375 55.55 53.9C56.15 53.275 56.15 52.2875 55.55 51.675L52.325 48.475Z" fill="white"/>
</svg>
