<svg width="56" height="64" viewBox="0 0 56 64" fill="none" xmlns="http://www.w3.org/2000/svg">
<path d="M32.2705 64H23.7293C23.004 64 22.4005 63.4427 22.3425 62.7199L21.9844 58.2549C20.7599 57.8783 19.5782 57.3894 18.4535 56.7943L15.048 59.6943C14.4959 60.1647 13.6751 60.1319 13.1621 59.6191L7.12801 53.5848C6.61504 53.072 6.58234 52.2511 7.0526 51.6989L9.95208 48.294C9.34978 47.1601 8.85782 45.9755 8.48203 44.7544L4.02943 44.4049C3.3054 44.3478 2.74707 43.7437 2.74707 43.0176V34.4763C2.74707 33.7512 3.30401 33.1474 4.02693 33.0895L9.44745 32.6539C10.2132 32.5906 10.8843 33.1634 10.9457 33.9295C11.0072 34.6952 10.4363 35.3661 9.67034 35.4276L5.52968 35.7603V41.7315L9.66784 42.0562C10.2622 42.103 10.7608 42.5233 10.9075 43.1014C11.3203 44.7279 11.9689 46.2908 12.8357 47.7457C13.1405 48.2574 13.0857 48.9063 12.6996 49.3599L10.004 52.5254L14.2219 56.7432L17.3873 54.0476C17.8405 53.6615 18.4891 53.6065 19.0008 53.9112C20.4379 54.7663 21.998 55.412 23.6378 55.8303C24.2141 55.9773 24.6331 56.4743 24.6807 57.0673L25.0135 61.2174H30.984L31.3092 57.0695C31.3558 56.475 31.7761 55.9764 32.3542 55.8296C33.9974 55.4127 35.5602 54.7673 36.999 53.9111C37.5108 53.6067 38.1595 53.6614 38.6127 54.0475L41.7783 56.7431L45.9962 52.5252L43.3004 49.3597C42.9143 48.9062 42.8595 48.2573 43.1643 47.7455C44.0196 46.3097 44.665 44.7471 45.0828 43.1009C45.2294 42.523 45.7281 42.1028 46.3226 42.0561L50.4702 41.7311V35.7604L46.3201 35.4275C45.5542 35.3661 44.9832 34.6954 45.0445 33.9293C45.1058 33.1636 45.7765 32.5899 46.5427 32.6538L51.9728 33.0894C52.6956 33.1473 53.2528 33.7508 53.2528 34.4761V43.0175C53.2528 43.7439 52.6942 44.348 51.9702 44.4047L47.5088 44.7545C47.1322 45.9833 46.6431 47.1679 46.0472 48.2934L48.9473 51.6989C49.4175 52.2511 49.3847 53.072 48.8719 53.5848L42.8378 59.6191C42.3248 60.1319 41.5038 60.1647 40.9519 59.6943L37.5462 56.7943C36.4193 57.3905 35.235 57.8797 34.0073 58.2557L33.6575 62.7174C33.6009 63.4413 32.9968 64 32.2705 64Z" fill="white"/>
<path d="M27.9951 52.5634C20.3741 52.5634 14.1739 46.3633 14.1739 38.7421C14.1739 37.974 14.7969 37.3508 15.5652 37.3508C16.3336 37.3508 16.9565 37.974 16.9565 38.7421C16.9565 44.8288 21.9084 49.7807 27.9951 49.7807C30.9359 49.7807 33.7059 48.6304 35.7948 46.5416C37.8835 44.453 39.0339 41.6829 39.0339 38.7421C39.0339 37.974 39.6569 37.3508 40.4252 37.3508C41.1934 37.3508 41.8165 37.974 41.8165 38.7421C41.8165 42.4263 40.3766 45.8948 37.7623 48.5092C35.1478 51.1236 31.679 52.5634 27.9951 52.5634Z" fill="white"/>
<path d="M27.9949 46.8117C23.5508 46.8117 19.9351 43.1918 19.9351 38.7421C19.9351 37.974 20.558 37.3508 21.3264 37.3508C22.0948 37.3508 22.7177 37.974 22.7177 38.7421C22.7177 41.6573 25.085 44.0291 27.9949 44.0291C29.4023 44.0291 30.7291 43.478 31.7312 42.4772C32.7309 41.4765 33.2819 40.1496 33.2819 38.7421C33.2819 37.974 33.9049 37.3508 34.6732 37.3508C35.4415 37.3508 36.0645 37.974 36.0645 38.7421C36.0645 40.8921 35.2243 42.9172 33.6987 44.4445C32.1701 45.9715 30.1449 46.8117 27.9949 46.8117Z" fill="white"/>
<path d="M40.4445 27.0525C39.6763 27.0525 39.0532 26.4296 39.0532 25.6612V24.4717C39.0532 20.3542 35.7035 17.0045 31.5861 17.0045H24.4139C20.2965 17.0045 16.9468 20.3542 16.9468 24.4717V25.6612C16.9468 26.4296 16.3239 27.0525 15.5555 27.0525C14.7871 27.0525 14.1642 26.4296 14.1642 25.6612V24.4717C14.1642 18.82 18.7622 14.2219 24.4139 14.2219H31.5861C37.2379 14.2219 41.8358 18.82 41.8358 24.4717V25.6612C41.8358 26.4298 41.2128 27.0525 40.4445 27.0525Z" fill="white"/>
<path d="M40.4445 33.3914H15.5555C14.7871 33.3914 14.1642 32.7682 14.1642 32.0001V29.2175C14.1642 28.4491 14.7871 27.8262 15.5555 27.8262C16.3239 27.8262 16.9468 28.4491 16.9468 29.2175V30.6088H39.0532V29.2175C39.0532 28.4491 39.6763 27.8262 40.4445 27.8262C41.2128 27.8262 41.8358 28.4491 41.8358 29.2175V32.0001C41.8358 32.7682 41.2128 33.3914 40.4445 33.3914Z" fill="white"/>
<path d="M54.5119 30.6086H40.4445C39.6762 30.6086 39.0532 29.9856 39.0532 29.2173V25.661C39.0532 21.3142 42.5901 17.7778 46.9377 17.7778H48.0189C52.3664 17.7778 55.9034 21.3142 55.9034 25.661V29.2173C55.9032 29.9856 55.2804 30.6086 54.5119 30.6086ZM41.8358 27.826H53.1206V25.661C53.1206 22.8486 50.8319 20.5604 48.0187 20.5604H46.9375C44.1243 20.5604 41.8356 22.8486 41.8356 25.661V27.826H41.8358Z" fill="white"/>
<path d="M47.4774 20.5603C44.4948 20.5603 42.0681 18.1332 42.0681 15.1496C42.0681 12.1662 44.4946 9.73877 47.4774 9.73877C50.461 9.73877 52.8884 12.166 52.8884 15.1496C52.8882 18.1332 50.461 20.5603 47.4774 20.5603ZM47.4774 12.5215C46.0291 12.5215 44.8507 13.7005 44.8507 15.1497C44.8507 16.5989 46.0291 17.7779 47.4774 17.7779C48.9266 17.7779 50.1058 16.5989 50.1058 15.1497C50.1058 13.7005 48.9266 12.5215 47.4774 12.5215Z" fill="white"/>
<path d="M44.6184 30.6088C43.8501 30.6088 43.2271 29.9858 43.2271 29.2175V26.2026C43.2271 25.4342 43.8501 24.8113 44.6184 24.8113C45.3866 24.8113 46.0097 25.4342 46.0097 26.2026V29.2175C46.0097 29.9858 45.3866 30.6088 44.6184 30.6088Z" fill="white"/>
<path d="M50.1836 30.6088C49.4153 30.6088 48.7923 29.9858 48.7923 29.2175V26.2026C48.7923 25.4342 49.4153 24.8113 50.1836 24.8113C50.9519 24.8113 51.5749 25.4342 51.5749 26.2026V29.2175C51.5749 29.9858 50.9519 30.6088 50.1836 30.6088Z" fill="white"/>
<path d="M15.5554 30.6086H1.48792C0.719506 30.6086 0.0966187 29.9856 0.0966187 29.2173V25.661C0.0966187 21.3142 3.63359 17.7778 7.98114 17.7778H9.06218C13.4097 17.7778 16.9467 21.3142 16.9467 25.661V29.2173C16.9467 29.9856 16.3238 30.6086 15.5554 30.6086ZM2.87923 27.826H14.1641V25.661C14.1641 22.8486 11.8754 20.5604 9.06218 20.5604H7.98114C5.16792 20.5604 2.87923 22.8486 2.87923 25.661V27.826Z" fill="white"/>
<path d="M8.52229 20.5603C5.53878 20.5603 3.11151 18.1332 3.11151 15.1496C3.11151 12.1662 5.53878 9.73877 8.52229 9.73877C11.505 9.73877 13.9317 12.166 13.9317 15.1496C13.9317 18.1332 11.5051 20.5603 8.52229 20.5603ZM8.52229 12.5215C7.07311 12.5215 5.89412 13.7005 5.89412 15.1497C5.89412 16.5989 7.07311 17.7779 8.52229 17.7779C9.97078 17.7779 11.1491 16.5989 11.1491 15.1497C11.1491 13.7005 9.97078 12.5215 8.52229 12.5215Z" fill="white"/>
<path d="M5.66181 30.6088C4.89339 30.6088 4.27051 29.9858 4.27051 29.2175V26.2026C4.27051 25.4342 4.89339 24.8113 5.66181 24.8113C6.43023 24.8113 7.05312 25.4342 7.05312 26.2026V29.2175C7.05312 29.9858 6.43023 30.6088 5.66181 30.6088Z" fill="white"/>
<path d="M11.2271 30.6088C10.4586 30.6088 9.83575 29.9858 9.83575 29.2175V26.2026C9.83575 25.4342 10.4586 24.8113 11.2271 24.8113C11.9955 24.8113 12.6184 25.4342 12.6184 26.2026V29.2175C12.6184 29.9858 11.9955 30.6088 11.2271 30.6088Z" fill="white"/>
<path d="M28.0005 17.0045C23.3116 17.0045 19.4969 13.1904 19.4969 8.50226C19.4969 3.81412 23.3116 0 28.0005 0C32.6887 0 36.5028 3.81398 36.5028 8.50212C36.5028 13.1903 32.6887 17.0045 28.0005 17.0045ZM28.0005 2.78261C24.846 2.78261 22.2795 5.34831 22.2795 8.50212C22.2795 11.6561 24.8459 14.2218 28.0005 14.2218C31.1543 14.2218 33.7202 11.6561 33.7202 8.50212C33.7202 5.34831 31.1543 2.78261 28.0005 2.78261Z" fill="white"/>
</svg>
