<svg width="64" height="64" viewBox="0 0 64 64" fill="none" xmlns="http://www.w3.org/2000/svg">
<path d="M31 59.5C30.9975 58.8399 30.8084 58.194 30.4545 57.6368C30.1006 57.0796 29.5964 56.6339 29 56.351V25.951C29.8781 25.8295 30.6772 25.3786 31.2351 24.6898C31.7931 24.0009 32.0681 23.1256 32.0045 22.2414C31.9409 21.3572 31.5434 20.5303 30.8926 19.9283C30.2418 19.3264 29.3865 18.9945 28.5 19H7.1C7.3321 17.8714 7.94618 16.8573 8.83875 16.1287C9.73132 15.4001 10.8478 15.0015 12 15H23.5C24.6935 15 25.8381 14.5259 26.682 13.682C27.5259 12.8381 28 11.6935 28 10.5C28 9.30653 27.5259 8.16193 26.682 7.31802C25.8381 6.47411 24.6935 6 23.5 6H12C10.9391 6 9.92172 5.57857 9.17157 4.82843C8.42143 4.07828 8 3.06087 8 2H6C6.00159 3.59081 6.63424 5.11601 7.75912 6.24089C8.88399 7.36576 10.4092 7.99841 12 8H23.5C24.163 8 24.7989 8.26339 25.2678 8.73223C25.7366 9.20107 26 9.83696 26 10.5C26 11.163 25.7366 11.7989 25.2678 12.2678C24.7989 12.7366 24.163 13 23.5 13H12C10.3182 13.002 8.69324 13.6094 7.42253 14.7112C6.15182 15.813 5.32026 17.3354 5.08 19H4.5C3.70611 18.9983 2.93534 19.2671 2.31473 19.7622C1.69413 20.2573 1.26075 20.9491 1.08604 21.7235C0.911335 22.4979 1.00572 23.3088 1.35365 24.0224C1.70158 24.736 2.28227 25.3097 3 25.649V56.349C2.28112 56.6877 1.69924 57.2614 1.35047 57.9754C1.0017 58.6894 0.906903 59.5011 1.08173 60.2763C1.25656 61.0515 1.69056 61.7438 2.31205 62.2391C2.93354 62.7343 3.70535 63.0027 4.5 63H27.5C28.4283 63 29.3185 62.6312 29.9749 61.9749C30.6313 61.3185 31 60.4283 31 59.5ZM27 26V28H5V26H27ZM5 30H27V32H5V30ZM5 34H27V36H5V34ZM5 38H27V40H5V38ZM5 42H27V44H5V42ZM5 46H27V48H5V46ZM5 50H27V52H5V50ZM27 54V56H5V54H27ZM4.5 21H28.5C28.8978 21 29.2794 21.158 29.5607 21.4393C29.842 21.7206 30 22.1022 30 22.5C30 22.8978 29.842 23.2794 29.5607 23.5607C29.2794 23.842 28.8978 24 28.5 24H4.5C4.10218 24 3.72065 23.842 3.43934 23.5607C3.15804 23.2794 3 22.8978 3 22.5C3 22.1022 3.15804 21.7206 3.43934 21.4393C3.72065 21.158 4.10218 21 4.5 21ZM3 59.5C3 59.1022 3.15804 58.7206 3.43934 58.4393C3.72065 58.158 4.10218 58 4.5 58H27.5C27.8978 58 28.2794 58.158 28.5607 58.4393C28.842 58.7206 29 59.1022 29 59.5C29 59.8978 28.842 60.2794 28.5607 60.5607C28.2794 60.842 27.8978 61 27.5 61H4.5C4.10218 61 3.72065 60.842 3.43934 60.5607C3.15804 60.2794 3 59.8978 3 59.5ZM60 6.371V4C60 3.20435 59.6839 2.44129 59.1213 1.87868C58.5587 1.31607 57.7957 1 57 1H41C40.2043 1 39.4413 1.31607 38.8787 1.87868C38.3161 2.44129 38 3.20435 38 4V6.371C37.1132 6.73805 36.3551 7.35954 35.8212 8.15703C35.2873 8.95452 35.0015 9.89228 35 10.852V53.152C35.0015 54.1117 35.2873 55.0495 35.8212 55.847C36.3551 56.6445 37.1132 57.2659 38 57.633V60C38 60.7957 38.3161 61.5587 38.8787 62.1213C39.4413 62.6839 40.2043 63 41 63H57C57.7957 63 58.5587 62.6839 59.1213 62.1213C59.6839 61.5587 60 60.7957 60 60V57.629C60.8868 57.2619 61.6449 56.6405 62.1788 55.843C62.7127 55.0455 62.9985 54.1077 63 53.148V10.848C62.9977 9.88897 62.7116 8.95207 62.1777 8.15536C61.6439 7.35866 60.8861 6.73779 60 6.371ZM37 52V50H61V52H37ZM61 12V14H37V12H61ZM61 16V18H37V16H61ZM61 20V22H37V20H61ZM61 24V26H37V24H61ZM45.467 28L37 33.211V28H45.467ZM37 35.559L49.283 28H51.768L37 38.1V35.559ZM37 40.527L55.309 28H58.8L37 43.091V40.527ZM37 48V46H61V48H37ZM53.3 44L61 38.868V44H53.3ZM61 36.465L49.7 44H46.232L61 33.9V36.465ZM61 31.473L42.691 44H39.2L61 28.909V31.473ZM41 3H57C57.2652 3 57.5196 3.10536 57.7071 3.29289C57.8946 3.48043 58 3.73478 58 4V6H40V4C40 3.73478 40.1054 3.48043 40.2929 3.29289C40.4804 3.10536 40.7348 3 41 3ZM39.852 8H58.152C58.7573 8.00205 59.3461 8.19709 59.833 8.55677C60.3198 8.91645 60.6792 9.42203 60.859 10H37.145C37.3248 9.42203 37.6842 8.91645 38.171 8.55677C38.6579 8.19709 39.2467 8.00205 39.852 8ZM57 61H41C40.7348 61 40.4804 60.8946 40.2929 60.7071C40.1054 60.5196 40 60.2652 40 60V58H58V60C58 60.2652 57.8946 60.5196 57.7071 60.7071C57.5196 60.8946 57.2652 61 57 61ZM58.148 56H39.848C39.2427 55.998 38.6539 55.8029 38.167 55.4432C37.6802 55.0835 37.3208 54.578 37.141 54H60.851C60.6714 54.5773 60.3126 55.0824 59.8266 55.4421C59.3406 55.8017 58.7526 55.9971 58.148 56Z" fill="#55B848"/>
</svg>
