<svg width="64" height="64" viewBox="0 0 64 64" fill="none" xmlns="http://www.w3.org/2000/svg">
<path d="M22.5519 10.0078C22.5173 10.3917 22.3493 10.7514 22.0769 11.0243C21.8045 11.2971 21.4451 11.4659 21.0612 11.5011C20.6722 11.4715 20.3061 11.3054 20.0275 11.0322C19.7489 10.759 19.5758 10.3962 19.5386 10.0078C19.5703 9.61479 19.741 9.24596 20.02 8.96742C20.2991 8.68887 20.6682 8.51883 21.0612 8.48778C21.4491 8.52446 21.8116 8.69717 22.0844 8.97535C22.3572 9.25353 22.5228 9.61924 22.5519 10.0078ZM32.6852 10.0078C32.6689 10.3961 32.5031 10.763 32.2226 11.032C31.9421 11.3009 31.5685 11.4511 31.1799 11.4511C30.7913 11.4511 30.4177 11.3009 30.1372 11.032C29.8567 10.763 29.6909 10.3961 29.6746 10.0078C29.666 9.80477 29.6986 9.60212 29.7704 9.41204C29.8422 9.22195 29.9517 9.04835 30.0924 8.90168C30.233 8.75501 30.4018 8.6383 30.5887 8.55857C30.7756 8.47884 30.9767 8.43774 31.1799 8.43774C31.3831 8.43774 31.5842 8.47884 31.7711 8.55857C31.958 8.6383 32.1268 8.75501 32.2675 8.90168C32.4081 9.04835 32.5176 9.22195 32.5894 9.41204C32.6612 9.60212 32.6938 9.80477 32.6852 10.0078ZM27.6212 10.0078C27.5855 10.3922 27.4163 10.752 27.1431 11.0247C26.8698 11.2975 26.5097 11.466 26.1252 11.5011C25.7365 11.4714 25.3707 11.3052 25.0926 11.032C24.8144 10.7587 24.6418 10.396 24.6052 10.0078C24.6364 9.61502 24.8065 9.24623 25.0851 8.96764C25.3637 8.68905 25.7325 8.51891 26.1252 8.48778C26.5137 8.5243 26.8768 8.69681 27.1505 8.9749C27.4242 9.25299 27.5909 9.61878 27.6212 10.0078Z" fill="#55B848"/>
<path d="M15.7812 19.2985V8.47721C15.7812 7.76997 16.0622 7.09169 16.5623 6.5916C17.0624 6.0915 17.7407 5.81055 18.4479 5.81055H54.1813C54.8885 5.81055 55.5668 6.0915 56.0669 6.5916C56.567 7.09169 56.8479 7.76997 56.8479 8.47721V41.5999C56.8479 41.9501 56.7789 42.2968 56.6449 42.6204C56.5109 42.9439 56.3145 43.2379 56.0669 43.4855C55.8192 43.7331 55.5253 43.9295 55.2017 44.0636C54.8782 44.1976 54.5314 44.2665 54.1813 44.2665H48.2186M15.7812 14.1785H56.8346" stroke="#55B848" stroke-width="2" stroke-linecap="round" stroke-linejoin="round"/>
<path d="M19.008 23.5012C18.9708 23.8896 18.7976 24.2524 18.519 24.5256C18.2405 24.7988 17.8744 24.9649 17.4853 24.9945C17.1023 24.9581 16.7442 24.7889 16.4729 24.5161C16.2017 24.2434 16.0343 23.8843 16 23.5012C16.0291 23.1127 16.1947 22.7469 16.4675 22.4688C16.7403 22.1906 17.1027 22.0179 17.4906 21.9812C17.8827 22.0135 18.2506 22.184 18.5285 22.4625C18.8065 22.7409 18.9764 23.1091 19.008 23.5012ZM24.072 23.5012C24.0359 23.8896 23.8634 24.2526 23.5852 24.526C23.307 24.7993 22.9409 24.9653 22.552 24.9945C22.1524 24.9945 21.7691 24.8358 21.4866 24.5532C21.204 24.2707 21.0453 23.8875 21.0453 23.4879C21.0453 23.0883 21.204 22.705 21.4866 22.4225C21.7691 22.1399 22.1524 21.9812 22.552 21.9812C22.9449 22.0118 23.314 22.1818 23.5927 22.4605C23.8714 22.7392 24.0414 23.1083 24.072 23.5012ZM13.9386 23.5012C13.9041 23.8852 13.736 24.2449 13.4636 24.5177C13.1913 24.7906 12.8319 24.9593 12.448 24.9945C12.0589 24.9649 11.6928 24.7988 11.4142 24.5256C11.1356 24.2524 10.9625 23.8896 10.9253 23.5012C10.957 23.1082 11.1277 22.7394 11.4068 22.4608C11.6858 22.1823 12.0549 22.0122 12.448 21.9812C12.8359 22.0179 13.1983 22.1906 13.4711 22.4688C13.7439 22.7469 13.9095 23.1127 13.9386 23.5012Z" fill="#55B848"/>
<path d="M38.3999 57.7599H45.5466C46.2539 57.7599 46.9321 57.479 47.4322 56.9789C47.9323 56.4788 48.2133 55.8005 48.2133 55.0933V21.9653C48.2133 21.258 47.9323 20.5797 47.4322 20.0796C46.9321 19.5795 46.2539 19.2986 45.5466 19.2986H9.83195C9.12471 19.2986 8.44643 19.5795 7.94633 20.0796C7.44623 20.5797 7.16528 21.258 7.16528 21.9653V55.0933C7.16528 55.8005 7.44623 56.4788 7.94633 56.9789C8.44643 57.479 9.12471 57.7599 9.83195 57.7599H27.7333M7.16528 27.6666H48.2186" stroke="#55B848" stroke-width="2" stroke-linecap="round" stroke-linejoin="round"/>
<path d="M27.4026 34.4827H12.6106V42.1893H24.8106" stroke="#55B848" stroke-width="2" stroke-linecap="round" stroke-linejoin="round"/>
<path d="M27.4026 34.4827H42.1973V42.1893H24.8106M12.6106 49.7733H42.1973" stroke="#55B848" stroke-width="2" stroke-linecap="round" stroke-linejoin="round"/>
<path d="M34.8453 57.7678C34.8275 58.2259 34.633 58.6593 34.3027 58.9771C33.9723 59.2949 33.5317 59.4724 33.0733 59.4724C32.6149 59.4724 32.1743 59.2949 31.8439 58.9771C31.5135 58.6593 31.319 58.2259 31.3013 57.7678C31.319 57.3097 31.5135 56.8764 31.8439 56.5586C32.1743 56.2408 32.6149 56.0632 33.0733 56.0632C33.5317 56.0632 33.9723 56.2408 34.3027 56.5586C34.633 56.8764 34.8275 57.3097 34.8453 57.7678Z" fill="#55B848"/>
</svg>
