<svg width="64" height="64" viewBox="0 0 64 64" fill="none" xmlns="http://www.w3.org/2000/svg">
<g clip-path="url(#clip0_44_20724)">
<path d="M60.232 42.57C58.5662 40.8884 56.4538 39.7188 54.1446 39.1992C51.8353 38.6797 49.4255 38.8319 47.2 39.638L39.568 32L47.2 24.37C49.3903 25.152 51.7554 25.307 54.029 24.8176C56.3026 24.3283 58.3944 23.2139 60.069 21.6C61.7436 19.9861 62.9344 17.9368 63.5073 15.6828C64.0803 13.4288 64.0126 11.0596 63.312 8.84199C63.2661 8.69558 63.1833 8.56348 63.0714 8.45845C62.9596 8.35342 62.8226 8.27901 62.6736 8.24242C62.5246 8.20582 62.3687 8.20828 62.2209 8.24954C62.0731 8.29081 61.9385 8.36949 61.83 8.47799L55.19 15.124L48.876 8.81199L55.52 2.16599C55.6285 2.05751 55.7072 1.92289 55.7485 1.77511C55.7897 1.62734 55.7922 1.47143 55.7556 1.32243C55.719 1.17343 55.6446 1.0364 55.5395 0.924557C55.4345 0.812718 55.3024 0.729861 55.156 0.683992C52.938 -0.0163018 50.5686 -0.0835549 48.3144 0.489804C46.0603 1.06316 44.0109 2.25437 42.3971 3.92931C40.7832 5.60426 39.669 7.69645 39.1798 9.97034C38.6906 12.2442 38.8458 14.6095 39.628 16.8L32 24.432L24.364 16.8C25.1456 14.6112 25.3008 12.2477 24.8122 9.97541C24.3236 7.70317 23.2106 5.61236 21.5984 3.93824C19.9862 2.26412 17.9388 1.07313 15.6866 0.499273C13.4344 -0.0745848 11.0667 -0.00853449 8.85 0.689992C8.70397 0.736335 8.5723 0.819432 8.46762 0.931307C8.36294 1.04318 8.28877 1.18008 8.25222 1.32887C8.21568 1.47766 8.21799 1.63334 8.25892 1.78098C8.29986 1.92862 8.37806 2.06327 8.486 2.17199L15.12 8.81999L8.82 15.118L2.17 8.48799C2.06141 8.38002 1.92691 8.30174 1.77939 8.26068C1.63186 8.21961 1.47626 8.21713 1.3275 8.25346C1.17874 8.2898 1.04181 8.36374 0.929832 8.46819C0.817853 8.57265 0.734583 8.70411 0.688002 8.84999C-0.0102576 11.0668 -0.0760174 13.4345 0.498122 15.6867C1.07226 17.9388 2.26352 19.9861 3.93785 21.598C5.61217 23.21 7.70314 24.3228 9.97545 24.8111C12.2478 25.2994 14.6113 25.1438 16.8 24.362L24.432 32L16.8 39.63C14.6096 38.8475 12.2443 38.6921 9.97033 39.1812C7.69638 39.6704 5.60416 40.7846 3.92929 42.3986C2.25441 44.0126 1.06341 46.0621 0.490399 48.3164C-0.0826118 50.5707 -0.0148677 52.9401 0.686002 55.158C0.731943 55.3043 0.814763 55.4364 0.926497 55.5415C1.03823 55.6465 1.17512 55.7211 1.324 55.758C1.47315 55.7934 1.62887 55.7904 1.77651 55.7491C1.92416 55.7078 2.05887 55.6297 2.168 55.522L8.81 48.878L15.122 55.19L8.48 61.834C8.3715 61.9425 8.29282 62.0771 8.25155 62.2249C8.21029 62.3726 8.20783 62.5286 8.24443 62.6776C8.28102 62.8266 8.35543 62.9636 8.46046 63.0754C8.56549 63.1873 8.69759 63.2701 8.844 63.316C11.062 64.0163 13.4314 64.0835 15.6856 63.5102C17.9397 62.9368 19.9891 61.7456 21.6029 60.0707C23.2168 58.3957 24.331 56.3035 24.8202 54.0296C25.3094 51.7558 25.1542 49.3904 24.372 47.2L32 39.568L39.636 47.2C38.9658 49.0824 38.7564 51.0981 39.0255 53.0781C39.2947 55.0581 40.0344 56.9448 41.1827 58.5801C42.3311 60.2153 43.8546 61.5516 45.6257 62.4768C47.3968 63.4021 49.3638 63.8894 51.362 63.898C52.6474 63.8974 53.925 63.6991 55.15 63.31C55.296 63.2636 55.4277 63.1805 55.5324 63.0687C55.6371 62.9568 55.7112 62.8199 55.7478 62.6711C55.7843 62.5223 55.782 62.3666 55.7411 62.219C55.7001 62.0714 55.622 61.9367 55.514 61.828L48.88 55.18L55.178 48.882L61.828 55.512C61.9371 55.6197 62.0718 55.6978 62.2195 55.7391C62.3671 55.7804 62.5229 55.7835 62.672 55.748C62.821 55.7113 62.9579 55.6368 63.0697 55.5317C63.1815 55.4266 63.2642 55.2944 63.31 55.148C64.0057 52.9714 64.0864 50.6449 63.5433 48.4253C63.0001 46.2057 61.8542 44.1794 60.232 42.57ZM17.65 22.69C17.5262 22.5639 17.3676 22.4776 17.1945 22.4419C17.0214 22.4063 16.8416 22.4231 16.678 22.49C14.9167 23.2153 12.9938 23.4575 11.1077 23.1917C9.22159 22.926 7.44051 22.1618 5.94823 20.9781C4.45594 19.7944 3.30648 18.234 2.61842 16.4578C1.93036 14.6817 1.72862 12.7541 2.034 10.874L8.19 17.012C8.27284 17.0949 8.37121 17.1607 8.47948 17.2055C8.58775 17.2504 8.7038 17.2735 8.821 17.2735C8.9382 17.2735 9.05426 17.2504 9.16253 17.2055C9.2708 17.1607 9.36916 17.0949 9.452 17.012L17.012 9.45199C17.179 9.28443 17.2727 9.05753 17.2727 8.82099C17.2727 8.58445 17.179 8.35755 17.012 8.18999L10.874 2.03399C12.7549 1.72627 14.6838 1.92632 16.4615 2.61346C18.2392 3.30061 19.8012 4.44993 20.9861 5.9427C22.171 7.43546 22.9359 9.21753 23.2017 11.1048C23.4675 12.992 23.2245 14.916 22.498 16.678C22.4311 16.8416 22.4143 17.0213 22.45 17.1945C22.4856 17.3676 22.5719 17.5261 22.698 17.65L30.74 25.694L25.702 30.732L17.65 22.69ZM22.504 47.322C23.2304 49.0849 23.4728 51.0099 23.2063 52.8979C22.9398 54.7859 22.174 56.5685 20.9881 58.0615C19.8021 59.5545 18.239 60.7038 16.4602 61.3906C14.6815 62.0773 12.7516 62.2767 10.87 61.968L17.016 55.82C17.0991 55.7373 17.1651 55.639 17.2102 55.5307C17.2552 55.4224 17.2784 55.3063 17.2784 55.189C17.2784 55.0717 17.2552 54.9556 17.2102 54.8473C17.1651 54.739 17.0991 54.6407 17.016 54.558L9.442 46.984C9.27175 46.8222 9.04586 46.732 8.811 46.732C8.57614 46.732 8.35025 46.8222 8.18 46.984L2.034 53.13C1.72487 51.2485 1.92381 49.3186 2.61028 47.5398C3.29675 45.7609 4.44583 44.1977 5.93875 43.0116C7.43167 41.8256 9.21425 41.0597 11.1023 40.7933C12.9903 40.5268 14.9152 40.7694 16.678 41.496C16.8413 41.5625 17.0207 41.579 17.1934 41.5434C17.3661 41.5078 17.5243 41.4217 17.648 41.296L26.296 32.648C26.306 32.648 26.32 32.636 26.33 32.626C26.34 32.616 26.342 32.602 26.352 32.592L32.6 26.356C32.612 26.346 32.626 26.342 32.636 26.332C32.646 26.322 32.65 26.306 32.66 26.296L41.3 17.648C41.4257 17.5243 41.5118 17.3661 41.5474 17.1934C41.583 17.0207 41.5665 16.8413 41.5 16.678C40.7736 14.915 40.5312 12.9901 40.7977 11.1021C41.0642 9.21408 41.83 7.43148 43.0159 5.93846C44.2019 4.44545 45.765 3.29619 47.5438 2.60943C49.3226 1.92267 51.2524 1.72333 53.134 2.03199L46.984 8.17999C46.9009 8.2627 46.8349 8.36102 46.7899 8.46931C46.7448 8.5776 46.7216 8.69372 46.7216 8.81099C46.7216 8.92827 46.7448 9.04439 46.7899 9.15267C46.8349 9.26096 46.9009 9.35929 46.984 9.44199L54.558 17.016C54.7283 17.1778 54.9541 17.268 55.189 17.268C55.4239 17.268 55.6498 17.1778 55.82 17.016L61.966 10.868C62.2751 12.7495 62.0762 14.6794 61.3897 16.4582C60.7033 18.2371 59.5542 19.8003 58.0613 20.9864C56.5683 22.1724 54.7858 22.9383 52.8978 23.2047C51.0098 23.4712 49.0849 23.2286 47.322 22.502C47.1589 22.4344 46.9792 22.4173 46.8063 22.453C46.6333 22.4886 46.4751 22.5754 46.352 22.702L37.704 31.35C37.694 31.35 37.68 31.362 37.67 31.372C37.66 31.382 37.658 31.396 37.648 31.406L31.4 37.644C31.388 37.654 31.374 37.658 31.364 37.668C31.354 37.678 31.35 37.694 31.34 37.704L22.7 46.352C22.575 46.4761 22.4896 46.6346 22.4548 46.8072C22.4199 46.9799 22.437 47.1591 22.504 47.322ZM61.966 53.122L55.81 46.984C55.7272 46.9011 55.6288 46.8353 55.5205 46.7904C55.4123 46.7456 55.2962 46.7225 55.179 46.7225C55.0618 46.7225 54.9457 46.7456 54.8375 46.7904C54.7292 46.8353 54.6308 46.9011 54.548 46.984L46.988 54.544C46.821 54.7116 46.7273 54.9385 46.7273 55.175C46.7273 55.4115 46.821 55.6384 46.988 55.806L53.128 61.962C51.2471 62.2697 49.3182 62.0697 47.5405 61.3825C45.7628 60.6954 44.2008 59.5461 43.0159 58.0533C41.831 56.5605 41.0661 54.7785 40.8003 52.8912C40.5345 51.004 40.7775 49.08 41.504 47.318C41.5709 47.1544 41.5877 46.9746 41.552 46.8015C41.5164 46.6284 41.4301 46.4698 41.304 46.346L33.262 38.302L38.3 33.264L46.344 41.308C46.4683 41.4334 46.6269 41.5193 46.7998 41.5548C46.9727 41.5904 47.1523 41.5741 47.316 41.508C49.0778 40.7823 51.0014 40.5399 52.8881 40.8059C54.7749 41.0719 56.5564 41.8366 58.0489 43.0211C59.5414 44.2056 60.6908 45.767 61.3783 47.544C62.0658 49.3211 62.2666 51.2494 61.96 53.13L61.966 53.122Z" fill="#55B848"/>
</g>
<defs>
<clipPath id="clip0_44_20724">
<rect width="64" height="64" fill="white"/>
</clipPath>
</defs>
</svg>
